<mxfile host="app.diagrams.net" agent="Mozilla/5.0 (Windows NT 10.0; Win64; x64) AppleWebKit/537.36 (KHTML, like Gecko) Chrome/135.0.0.0 Safari/537.36" version="26.2.12" pages="2">
  <diagram name="Heap sort" id="qsi6wLuXhjEzFwrj6QT7">
    <mxGraphModel dx="1723" dy="648" grid="1" gridSize="10" guides="1" tooltips="1" connect="1" arrows="1" fold="1" page="1" pageScale="1" pageWidth="827" pageHeight="1169" math="0" shadow="0">
      <root>
        <mxCell id="0" />
        <mxCell id="1" parent="0" />
        <mxCell id="8Rj5OR-w-8HBWn9BKFhG-1" style="edgeStyle=orthogonalEdgeStyle;rounded=0;orthogonalLoop=1;jettySize=auto;html=1;endArrow=none;startFill=1;startArrow=classic;" edge="1" parent="1">
          <mxGeometry relative="1" as="geometry">
            <mxPoint x="540" y="160" as="targetPoint" />
            <mxPoint x="540" y="180" as="sourcePoint" />
            <Array as="points">
              <mxPoint x="540" y="170" />
              <mxPoint x="540" y="170" />
            </Array>
          </mxGeometry>
        </mxCell>
        <mxCell id="8Rj5OR-w-8HBWn9BKFhG-2" value="" style="shape=table;startSize=0;container=1;collapsible=0;childLayout=tableLayout;fontSize=16;" vertex="1" parent="1">
          <mxGeometry x="160" y="180" width="413" height="40" as="geometry" />
        </mxCell>
        <mxCell id="8Rj5OR-w-8HBWn9BKFhG-3" value="" style="shape=tableRow;horizontal=0;startSize=0;swimlaneHead=0;swimlaneBody=0;strokeColor=inherit;top=0;left=0;bottom=0;right=0;collapsible=0;dropTarget=0;fillColor=none;points=[[0,0.5],[1,0.5]];portConstraint=eastwest;fontSize=16;" vertex="1" parent="8Rj5OR-w-8HBWn9BKFhG-2">
          <mxGeometry width="413" height="40" as="geometry" />
        </mxCell>
        <mxCell id="8Rj5OR-w-8HBWn9BKFhG-4" value="22" style="shape=partialRectangle;html=1;whiteSpace=wrap;connectable=0;strokeColor=inherit;overflow=hidden;fillColor=none;top=0;left=0;bottom=0;right=0;pointerEvents=1;fontSize=16;" vertex="1" parent="8Rj5OR-w-8HBWn9BKFhG-3">
          <mxGeometry width="69" height="40" as="geometry">
            <mxRectangle width="69" height="40" as="alternateBounds" />
          </mxGeometry>
        </mxCell>
        <mxCell id="8Rj5OR-w-8HBWn9BKFhG-5" value="35" style="shape=partialRectangle;html=1;whiteSpace=wrap;connectable=0;strokeColor=inherit;overflow=hidden;fillColor=none;top=0;left=0;bottom=0;right=0;pointerEvents=1;fontSize=16;" vertex="1" parent="8Rj5OR-w-8HBWn9BKFhG-3">
          <mxGeometry x="69" width="68" height="40" as="geometry">
            <mxRectangle width="68" height="40" as="alternateBounds" />
          </mxGeometry>
        </mxCell>
        <mxCell id="8Rj5OR-w-8HBWn9BKFhG-6" value="2" style="shape=partialRectangle;html=1;whiteSpace=wrap;connectable=0;strokeColor=inherit;overflow=hidden;fillColor=none;top=0;left=0;bottom=0;right=0;pointerEvents=1;fontSize=16;" vertex="1" parent="8Rj5OR-w-8HBWn9BKFhG-3">
          <mxGeometry x="137" width="69" height="40" as="geometry">
            <mxRectangle width="69" height="40" as="alternateBounds" />
          </mxGeometry>
        </mxCell>
        <mxCell id="8Rj5OR-w-8HBWn9BKFhG-7" value="1" style="shape=partialRectangle;html=1;whiteSpace=wrap;connectable=0;strokeColor=inherit;overflow=hidden;fillColor=none;top=0;left=0;bottom=0;right=0;pointerEvents=1;fontSize=16;" vertex="1" parent="8Rj5OR-w-8HBWn9BKFhG-3">
          <mxGeometry x="206" width="69" height="40" as="geometry">
            <mxRectangle width="69" height="40" as="alternateBounds" />
          </mxGeometry>
        </mxCell>
        <mxCell id="8Rj5OR-w-8HBWn9BKFhG-8" value="13" style="shape=partialRectangle;html=1;whiteSpace=wrap;connectable=0;strokeColor=inherit;overflow=hidden;fillColor=none;top=0;left=0;bottom=0;right=0;pointerEvents=1;fontSize=16;" vertex="1" parent="8Rj5OR-w-8HBWn9BKFhG-3">
          <mxGeometry x="275" width="69" height="40" as="geometry">
            <mxRectangle width="69" height="40" as="alternateBounds" />
          </mxGeometry>
        </mxCell>
        <mxCell id="8Rj5OR-w-8HBWn9BKFhG-9" value="7" style="shape=partialRectangle;html=1;whiteSpace=wrap;connectable=0;strokeColor=inherit;overflow=hidden;fillColor=none;top=0;left=0;bottom=0;right=0;pointerEvents=1;fontSize=16;" vertex="1" parent="8Rj5OR-w-8HBWn9BKFhG-3">
          <mxGeometry x="344" width="69" height="40" as="geometry">
            <mxRectangle width="69" height="40" as="alternateBounds" />
          </mxGeometry>
        </mxCell>
        <mxCell id="8Rj5OR-w-8HBWn9BKFhG-11" value="" style="shape=table;startSize=0;container=1;collapsible=0;childLayout=tableLayout;fontSize=16;" vertex="1" parent="1">
          <mxGeometry x="160" y="300" width="413" height="40" as="geometry" />
        </mxCell>
        <mxCell id="8Rj5OR-w-8HBWn9BKFhG-12" value="" style="shape=tableRow;horizontal=0;startSize=0;swimlaneHead=0;swimlaneBody=0;strokeColor=inherit;top=0;left=0;bottom=0;right=0;collapsible=0;dropTarget=0;fillColor=none;points=[[0,0.5],[1,0.5]];portConstraint=eastwest;fontSize=16;" vertex="1" parent="8Rj5OR-w-8HBWn9BKFhG-11">
          <mxGeometry width="413" height="40" as="geometry" />
        </mxCell>
        <mxCell id="8Rj5OR-w-8HBWn9BKFhG-13" value="22" style="shape=partialRectangle;html=1;whiteSpace=wrap;connectable=0;strokeColor=inherit;overflow=hidden;fillColor=none;top=0;left=0;bottom=0;right=0;pointerEvents=1;fontSize=16;" vertex="1" parent="8Rj5OR-w-8HBWn9BKFhG-12">
          <mxGeometry width="69" height="40" as="geometry">
            <mxRectangle width="69" height="40" as="alternateBounds" />
          </mxGeometry>
        </mxCell>
        <mxCell id="8Rj5OR-w-8HBWn9BKFhG-14" value="35" style="shape=partialRectangle;html=1;whiteSpace=wrap;connectable=0;strokeColor=inherit;overflow=hidden;fillColor=none;top=0;left=0;bottom=0;right=0;pointerEvents=1;fontSize=16;" vertex="1" parent="8Rj5OR-w-8HBWn9BKFhG-12">
          <mxGeometry x="69" width="68" height="40" as="geometry">
            <mxRectangle width="68" height="40" as="alternateBounds" />
          </mxGeometry>
        </mxCell>
        <mxCell id="8Rj5OR-w-8HBWn9BKFhG-15" value="7" style="shape=partialRectangle;html=1;whiteSpace=wrap;connectable=0;strokeColor=inherit;overflow=hidden;fillColor=none;top=0;left=0;bottom=0;right=0;pointerEvents=1;fontSize=16;" vertex="1" parent="8Rj5OR-w-8HBWn9BKFhG-12">
          <mxGeometry x="137" width="69" height="40" as="geometry">
            <mxRectangle width="69" height="40" as="alternateBounds" />
          </mxGeometry>
        </mxCell>
        <mxCell id="8Rj5OR-w-8HBWn9BKFhG-16" value="1" style="shape=partialRectangle;html=1;whiteSpace=wrap;connectable=0;strokeColor=inherit;overflow=hidden;fillColor=none;top=0;left=0;bottom=0;right=0;pointerEvents=1;fontSize=16;" vertex="1" parent="8Rj5OR-w-8HBWn9BKFhG-12">
          <mxGeometry x="206" width="69" height="40" as="geometry">
            <mxRectangle width="69" height="40" as="alternateBounds" />
          </mxGeometry>
        </mxCell>
        <mxCell id="8Rj5OR-w-8HBWn9BKFhG-17" value="13" style="shape=partialRectangle;html=1;whiteSpace=wrap;connectable=0;strokeColor=inherit;overflow=hidden;fillColor=none;top=0;left=0;bottom=0;right=0;pointerEvents=1;fontSize=16;" vertex="1" parent="8Rj5OR-w-8HBWn9BKFhG-12">
          <mxGeometry x="275" width="69" height="40" as="geometry">
            <mxRectangle width="69" height="40" as="alternateBounds" />
          </mxGeometry>
        </mxCell>
        <mxCell id="8Rj5OR-w-8HBWn9BKFhG-18" value="2" style="shape=partialRectangle;html=1;whiteSpace=wrap;connectable=0;strokeColor=inherit;overflow=hidden;fillColor=none;top=0;left=0;bottom=0;right=0;pointerEvents=1;fontSize=16;" vertex="1" parent="8Rj5OR-w-8HBWn9BKFhG-12">
          <mxGeometry x="344" width="69" height="40" as="geometry">
            <mxRectangle width="69" height="40" as="alternateBounds" />
          </mxGeometry>
        </mxCell>
        <mxCell id="8Rj5OR-w-8HBWn9BKFhG-67" value="" style="curved=1;endArrow=classic;html=1;rounded=0;entryX=0.266;entryY=0;entryDx=0;entryDy=0;entryPerimeter=0;exitX=0.587;exitY=-0.015;exitDx=0;exitDy=0;exitPerimeter=0;startArrow=classic;startFill=1;" edge="1" parent="8Rj5OR-w-8HBWn9BKFhG-11" source="8Rj5OR-w-8HBWn9BKFhG-12" target="8Rj5OR-w-8HBWn9BKFhG-12">
          <mxGeometry width="50" height="50" relative="1" as="geometry">
            <mxPoint x="190" y="-10" as="sourcePoint" />
            <mxPoint x="110" y="-10" as="targetPoint" />
            <Array as="points">
              <mxPoint x="210" y="-30" />
              <mxPoint x="130" y="-30" />
            </Array>
          </mxGeometry>
        </mxCell>
        <mxCell id="8Rj5OR-w-8HBWn9BKFhG-68" value="" style="curved=1;endArrow=classic;html=1;rounded=0;entryX=0.268;entryY=1.055;entryDx=0;entryDy=0;entryPerimeter=0;exitX=0.752;exitY=1.055;exitDx=0;exitDy=0;exitPerimeter=0;startArrow=classic;startFill=1;" edge="1" parent="8Rj5OR-w-8HBWn9BKFhG-11" source="8Rj5OR-w-8HBWn9BKFhG-12" target="8Rj5OR-w-8HBWn9BKFhG-12">
          <mxGeometry width="50" height="50" relative="1" as="geometry">
            <mxPoint x="200" y="100" as="sourcePoint" />
            <mxPoint x="120" y="100" as="targetPoint" />
            <Array as="points">
              <mxPoint x="240" y="70" />
              <mxPoint x="150" y="60" />
            </Array>
          </mxGeometry>
        </mxCell>
        <mxCell id="8Rj5OR-w-8HBWn9BKFhG-19" value="HEAP SORT - PASSO 1" style="text;html=1;align=center;verticalAlign=middle;resizable=0;points=[];autosize=1;strokeColor=none;fillColor=none;" vertex="1" parent="1">
          <mxGeometry x="45" y="30" width="150" height="30" as="geometry" />
        </mxCell>
        <mxCell id="8Rj5OR-w-8HBWn9BKFhG-20" value="i = 0&lt;div&gt;n = 6&lt;/div&gt;" style="text;html=1;align=center;verticalAlign=middle;resizable=0;points=[];autosize=1;strokeColor=none;fillColor=none;" vertex="1" parent="1">
          <mxGeometry x="40" y="180" width="50" height="40" as="geometry" />
        </mxCell>
        <mxCell id="8Rj5OR-w-8HBWn9BKFhG-21" value="i = 1" style="text;html=1;align=center;verticalAlign=middle;resizable=0;points=[];autosize=1;strokeColor=none;fillColor=none;" vertex="1" parent="1">
          <mxGeometry x="40" y="300" width="50" height="30" as="geometry" />
        </mxCell>
        <mxCell id="8Rj5OR-w-8HBWn9BKFhG-23" value="" style="shape=table;startSize=0;container=1;collapsible=0;childLayout=tableLayout;fontSize=16;" vertex="1" parent="1">
          <mxGeometry x="160" y="430" width="413" height="40" as="geometry" />
        </mxCell>
        <mxCell id="8Rj5OR-w-8HBWn9BKFhG-24" value="" style="shape=tableRow;horizontal=0;startSize=0;swimlaneHead=0;swimlaneBody=0;strokeColor=inherit;top=0;left=0;bottom=0;right=0;collapsible=0;dropTarget=0;fillColor=none;points=[[0,0.5],[1,0.5]];portConstraint=eastwest;fontSize=16;" vertex="1" parent="8Rj5OR-w-8HBWn9BKFhG-23">
          <mxGeometry width="413" height="40" as="geometry" />
        </mxCell>
        <mxCell id="8Rj5OR-w-8HBWn9BKFhG-25" value="22" style="shape=partialRectangle;html=1;whiteSpace=wrap;connectable=0;strokeColor=inherit;overflow=hidden;fillColor=none;top=0;left=0;bottom=0;right=0;pointerEvents=1;fontSize=16;" vertex="1" parent="8Rj5OR-w-8HBWn9BKFhG-24">
          <mxGeometry width="69" height="40" as="geometry">
            <mxRectangle width="69" height="40" as="alternateBounds" />
          </mxGeometry>
        </mxCell>
        <mxCell id="8Rj5OR-w-8HBWn9BKFhG-26" value="35" style="shape=partialRectangle;html=1;whiteSpace=wrap;connectable=0;strokeColor=inherit;overflow=hidden;fillColor=none;top=0;left=0;bottom=0;right=0;pointerEvents=1;fontSize=16;" vertex="1" parent="8Rj5OR-w-8HBWn9BKFhG-24">
          <mxGeometry x="69" width="68" height="40" as="geometry">
            <mxRectangle width="68" height="40" as="alternateBounds" />
          </mxGeometry>
        </mxCell>
        <mxCell id="8Rj5OR-w-8HBWn9BKFhG-27" value="7" style="shape=partialRectangle;html=1;whiteSpace=wrap;connectable=0;strokeColor=inherit;overflow=hidden;fillColor=none;top=0;left=0;bottom=0;right=0;pointerEvents=1;fontSize=16;" vertex="1" parent="8Rj5OR-w-8HBWn9BKFhG-24">
          <mxGeometry x="137" width="69" height="40" as="geometry">
            <mxRectangle width="69" height="40" as="alternateBounds" />
          </mxGeometry>
        </mxCell>
        <mxCell id="8Rj5OR-w-8HBWn9BKFhG-28" value="1" style="shape=partialRectangle;html=1;whiteSpace=wrap;connectable=0;strokeColor=inherit;overflow=hidden;fillColor=none;top=0;left=0;bottom=0;right=0;pointerEvents=1;fontSize=16;" vertex="1" parent="8Rj5OR-w-8HBWn9BKFhG-24">
          <mxGeometry x="206" width="69" height="40" as="geometry">
            <mxRectangle width="69" height="40" as="alternateBounds" />
          </mxGeometry>
        </mxCell>
        <mxCell id="8Rj5OR-w-8HBWn9BKFhG-29" value="13" style="shape=partialRectangle;html=1;whiteSpace=wrap;connectable=0;strokeColor=inherit;overflow=hidden;fillColor=none;top=0;left=0;bottom=0;right=0;pointerEvents=1;fontSize=16;" vertex="1" parent="8Rj5OR-w-8HBWn9BKFhG-24">
          <mxGeometry x="275" width="69" height="40" as="geometry">
            <mxRectangle width="69" height="40" as="alternateBounds" />
          </mxGeometry>
        </mxCell>
        <mxCell id="8Rj5OR-w-8HBWn9BKFhG-30" value="2" style="shape=partialRectangle;html=1;whiteSpace=wrap;connectable=0;strokeColor=inherit;overflow=hidden;fillColor=none;top=0;left=0;bottom=0;right=0;pointerEvents=1;fontSize=16;" vertex="1" parent="8Rj5OR-w-8HBWn9BKFhG-24">
          <mxGeometry x="344" width="69" height="40" as="geometry">
            <mxRectangle width="69" height="40" as="alternateBounds" />
          </mxGeometry>
        </mxCell>
        <mxCell id="8Rj5OR-w-8HBWn9BKFhG-31" value="i = 2" style="text;html=1;align=center;verticalAlign=middle;resizable=0;points=[];autosize=1;strokeColor=none;fillColor=none;" vertex="1" parent="1">
          <mxGeometry x="40" y="430" width="50" height="30" as="geometry" />
        </mxCell>
        <mxCell id="8Rj5OR-w-8HBWn9BKFhG-34" value="" style="shape=table;startSize=0;container=1;collapsible=0;childLayout=tableLayout;fontSize=16;" vertex="1" parent="1">
          <mxGeometry x="160" y="530" width="413" height="40" as="geometry" />
        </mxCell>
        <mxCell id="8Rj5OR-w-8HBWn9BKFhG-35" value="" style="shape=tableRow;horizontal=0;startSize=0;swimlaneHead=0;swimlaneBody=0;strokeColor=inherit;top=0;left=0;bottom=0;right=0;collapsible=0;dropTarget=0;fillColor=none;points=[[0,0.5],[1,0.5]];portConstraint=eastwest;fontSize=16;" vertex="1" parent="8Rj5OR-w-8HBWn9BKFhG-34">
          <mxGeometry width="413" height="40" as="geometry" />
        </mxCell>
        <mxCell id="8Rj5OR-w-8HBWn9BKFhG-36" value="35" style="shape=partialRectangle;html=1;whiteSpace=wrap;connectable=0;strokeColor=inherit;overflow=hidden;fillColor=none;top=0;left=0;bottom=0;right=0;pointerEvents=1;fontSize=16;" vertex="1" parent="8Rj5OR-w-8HBWn9BKFhG-35">
          <mxGeometry width="69" height="40" as="geometry">
            <mxRectangle width="69" height="40" as="alternateBounds" />
          </mxGeometry>
        </mxCell>
        <mxCell id="8Rj5OR-w-8HBWn9BKFhG-37" value="22" style="shape=partialRectangle;html=1;whiteSpace=wrap;connectable=0;strokeColor=inherit;overflow=hidden;fillColor=none;top=0;left=0;bottom=0;right=0;pointerEvents=1;fontSize=16;" vertex="1" parent="8Rj5OR-w-8HBWn9BKFhG-35">
          <mxGeometry x="69" width="68" height="40" as="geometry">
            <mxRectangle width="68" height="40" as="alternateBounds" />
          </mxGeometry>
        </mxCell>
        <mxCell id="8Rj5OR-w-8HBWn9BKFhG-38" value="7" style="shape=partialRectangle;html=1;whiteSpace=wrap;connectable=0;strokeColor=inherit;overflow=hidden;fillColor=none;top=0;left=0;bottom=0;right=0;pointerEvents=1;fontSize=16;" vertex="1" parent="8Rj5OR-w-8HBWn9BKFhG-35">
          <mxGeometry x="137" width="69" height="40" as="geometry">
            <mxRectangle width="69" height="40" as="alternateBounds" />
          </mxGeometry>
        </mxCell>
        <mxCell id="8Rj5OR-w-8HBWn9BKFhG-39" value="1" style="shape=partialRectangle;html=1;whiteSpace=wrap;connectable=0;strokeColor=inherit;overflow=hidden;fillColor=none;top=0;left=0;bottom=0;right=0;pointerEvents=1;fontSize=16;" vertex="1" parent="8Rj5OR-w-8HBWn9BKFhG-35">
          <mxGeometry x="206" width="69" height="40" as="geometry">
            <mxRectangle width="69" height="40" as="alternateBounds" />
          </mxGeometry>
        </mxCell>
        <mxCell id="8Rj5OR-w-8HBWn9BKFhG-40" value="13" style="shape=partialRectangle;html=1;whiteSpace=wrap;connectable=0;strokeColor=inherit;overflow=hidden;fillColor=none;top=0;left=0;bottom=0;right=0;pointerEvents=1;fontSize=16;" vertex="1" parent="8Rj5OR-w-8HBWn9BKFhG-35">
          <mxGeometry x="275" width="69" height="40" as="geometry">
            <mxRectangle width="69" height="40" as="alternateBounds" />
          </mxGeometry>
        </mxCell>
        <mxCell id="8Rj5OR-w-8HBWn9BKFhG-41" value="2" style="shape=partialRectangle;html=1;whiteSpace=wrap;connectable=0;strokeColor=inherit;overflow=hidden;fillColor=none;top=0;left=0;bottom=0;right=0;pointerEvents=1;fontSize=16;" vertex="1" parent="8Rj5OR-w-8HBWn9BKFhG-35">
          <mxGeometry x="344" width="69" height="40" as="geometry">
            <mxRectangle width="69" height="40" as="alternateBounds" />
          </mxGeometry>
        </mxCell>
        <mxCell id="8Rj5OR-w-8HBWn9BKFhG-54" value="TROCA" style="text;html=1;align=center;verticalAlign=middle;resizable=0;points=[];autosize=1;strokeColor=none;fillColor=none;" vertex="1" parent="1">
          <mxGeometry x="600" y="170" width="70" height="30" as="geometry" />
        </mxCell>
        <mxCell id="8Rj5OR-w-8HBWn9BKFhG-57" value="OK" style="text;html=1;align=center;verticalAlign=middle;resizable=0;points=[];autosize=1;strokeColor=none;fillColor=none;" vertex="1" parent="1">
          <mxGeometry x="600" y="300" width="40" height="30" as="geometry" />
        </mxCell>
        <mxCell id="8Rj5OR-w-8HBWn9BKFhG-60" value="CONSTRUIR&lt;div&gt;A&lt;/div&gt;&lt;div&gt;HEAP&lt;/div&gt;" style="text;html=1;align=center;verticalAlign=middle;resizable=0;points=[];autosize=1;strokeColor=none;fillColor=none;" vertex="1" parent="1">
          <mxGeometry x="321.5" y="50" width="90" height="60" as="geometry" />
        </mxCell>
        <mxCell id="8Rj5OR-w-8HBWn9BKFhG-61" value="Último nó não folha:&lt;div&gt;(6/2)-1 = 2&amp;nbsp;&lt;/div&gt;" style="text;html=1;align=center;verticalAlign=middle;whiteSpace=wrap;rounded=0;" vertex="1" parent="1">
          <mxGeometry x="20" y="230" width="90" height="30" as="geometry" />
        </mxCell>
        <mxCell id="8Rj5OR-w-8HBWn9BKFhG-10" value="" style="endArrow=classic;html=1;rounded=0;entryX=0.08;entryY=-0.05;entryDx=0;entryDy=0;entryPerimeter=0;" edge="1" parent="1">
          <mxGeometry width="50" height="50" relative="1" as="geometry">
            <mxPoint x="540" y="160" as="sourcePoint" />
            <mxPoint x="330.03999999999996" y="178" as="targetPoint" />
            <Array as="points">
              <mxPoint x="330" y="160" />
            </Array>
          </mxGeometry>
        </mxCell>
        <mxCell id="8Rj5OR-w-8HBWn9BKFhG-62" value="7 &amp;gt; 2" style="text;html=1;align=center;verticalAlign=middle;resizable=0;points=[];autosize=1;strokeColor=none;fillColor=none;" vertex="1" parent="1">
          <mxGeometry x="610" y="190" width="50" height="30" as="geometry" />
        </mxCell>
        <mxCell id="8Rj5OR-w-8HBWn9BKFhG-64" value="&lt;span style=&quot;text-wrap-mode: nowrap;&quot;&gt;Próximo nó&amp;nbsp;&lt;/span&gt;&lt;div&gt;&lt;span style=&quot;text-wrap-mode: nowrap;&quot;&gt;não folha: 1&lt;/span&gt;&lt;/div&gt;" style="text;html=1;align=center;verticalAlign=middle;whiteSpace=wrap;rounded=0;" vertex="1" parent="1">
          <mxGeometry x="30" y="330" width="80" height="30" as="geometry" />
        </mxCell>
        <mxCell id="8Rj5OR-w-8HBWn9BKFhG-69" value="2*1 + 2 = 4" style="text;html=1;align=center;verticalAlign=middle;resizable=0;points=[];autosize=1;strokeColor=none;fillColor=none;" vertex="1" parent="1">
          <mxGeometry x="334" y="360" width="80" height="30" as="geometry" />
        </mxCell>
        <mxCell id="8Rj5OR-w-8HBWn9BKFhG-70" value="&lt;span style=&quot;color: rgb(0, 0, 0); font-family: Helvetica; font-size: 12px; font-style: normal; font-variant-ligatures: normal; font-variant-caps: normal; font-weight: 400; letter-spacing: normal; orphans: 2; text-align: center; text-indent: 0px; text-transform: none; widows: 2; word-spacing: 0px; -webkit-text-stroke-width: 0px; white-space: nowrap; text-decoration-thickness: initial; text-decoration-style: initial; text-decoration-color: initial; float: none; display: inline !important;&quot;&gt;2*1 + 2 = 3&lt;/span&gt;" style="text;whiteSpace=wrap;html=1;" vertex="1" parent="1">
          <mxGeometry x="300" y="250" width="70" height="20" as="geometry" />
        </mxCell>
        <mxCell id="8Rj5OR-w-8HBWn9BKFhG-72" value="&lt;span style=&quot;text-wrap-mode: nowrap;&quot;&gt;Próximo nó&amp;nbsp;&lt;/span&gt;&lt;div&gt;&lt;span style=&quot;text-wrap-mode: nowrap;&quot;&gt;não folha: 0&lt;/span&gt;&lt;/div&gt;" style="text;html=1;align=center;verticalAlign=middle;whiteSpace=wrap;rounded=0;" vertex="1" parent="1">
          <mxGeometry x="30" y="460" width="80" height="30" as="geometry" />
        </mxCell>
        <mxCell id="8Rj5OR-w-8HBWn9BKFhG-73" value="" style="curved=1;endArrow=classic;html=1;rounded=0;entryX=0.266;entryY=0;entryDx=0;entryDy=0;entryPerimeter=0;exitX=0.261;exitY=-0.079;exitDx=0;exitDy=0;exitPerimeter=0;startArrow=classic;startFill=1;" edge="1" parent="1" source="8Rj5OR-w-8HBWn9BKFhG-24">
          <mxGeometry width="50" height="50" relative="1" as="geometry">
            <mxPoint x="321.5" y="429" as="sourcePoint" />
            <mxPoint x="189.5" y="430" as="targetPoint" />
            <Array as="points">
              <mxPoint x="260" y="400" />
              <mxPoint x="209.5" y="400" />
            </Array>
          </mxGeometry>
        </mxCell>
        <mxCell id="8Rj5OR-w-8HBWn9BKFhG-74" value="" style="curved=1;endArrow=classic;html=1;rounded=0;entryX=0.268;entryY=1.055;entryDx=0;entryDy=0;entryPerimeter=0;exitX=0.421;exitY=1.007;exitDx=0;exitDy=0;exitPerimeter=0;startArrow=classic;startFill=1;" edge="1" parent="1" source="8Rj5OR-w-8HBWn9BKFhG-24">
          <mxGeometry width="50" height="50" relative="1" as="geometry">
            <mxPoint x="390" y="470" as="sourcePoint" />
            <mxPoint x="190" y="470" as="targetPoint" />
            <Array as="points">
              <mxPoint x="290" y="498" />
              <mxPoint x="220" y="500" />
            </Array>
          </mxGeometry>
        </mxCell>
        <mxCell id="8Rj5OR-w-8HBWn9BKFhG-75" value="2*0 + 2 = 2" style="text;html=1;align=center;verticalAlign=middle;resizable=0;points=[];autosize=1;strokeColor=none;fillColor=none;" vertex="1" parent="1">
          <mxGeometry x="210" y="490" width="80" height="30" as="geometry" />
        </mxCell>
        <mxCell id="8Rj5OR-w-8HBWn9BKFhG-76" value="2*0 + 1 = 1" style="text;html=1;align=center;verticalAlign=middle;resizable=0;points=[];autosize=1;strokeColor=none;fillColor=none;" vertex="1" parent="1">
          <mxGeometry x="190" y="380" width="80" height="30" as="geometry" />
        </mxCell>
        <mxCell id="8Rj5OR-w-8HBWn9BKFhG-78" value="TROCA" style="text;html=1;align=center;verticalAlign=middle;resizable=0;points=[];autosize=1;strokeColor=none;fillColor=none;" vertex="1" parent="1">
          <mxGeometry x="600" y="420" width="70" height="30" as="geometry" />
        </mxCell>
        <mxCell id="8Rj5OR-w-8HBWn9BKFhG-79" value="35 &amp;gt; 22" style="text;html=1;align=center;verticalAlign=middle;resizable=0;points=[];autosize=1;strokeColor=none;fillColor=none;" vertex="1" parent="1">
          <mxGeometry x="605" y="440" width="60" height="30" as="geometry" />
        </mxCell>
        <mxCell id="8Rj5OR-w-8HBWn9BKFhG-80" value="&lt;span style=&quot;text-wrap-mode: nowrap;&quot;&gt;HEAP&amp;nbsp;&lt;/span&gt;&lt;div&gt;&lt;span style=&quot;text-wrap-mode: nowrap;&quot;&gt;CONSTRUIDA&lt;/span&gt;&lt;/div&gt;" style="text;html=1;align=center;verticalAlign=middle;whiteSpace=wrap;rounded=0;" vertex="1" parent="1">
          <mxGeometry x="30" y="530" width="80" height="30" as="geometry" />
        </mxCell>
        <mxCell id="8Rj5OR-w-8HBWn9BKFhG-81" value="35" style="ellipse;whiteSpace=wrap;html=1;aspect=fixed;" vertex="1" parent="1">
          <mxGeometry x="360" y="652" width="40" height="40" as="geometry" />
        </mxCell>
        <mxCell id="8Rj5OR-w-8HBWn9BKFhG-83" value="22" style="ellipse;whiteSpace=wrap;html=1;aspect=fixed;" vertex="1" parent="1">
          <mxGeometry x="281.5" y="732" width="40" height="40" as="geometry" />
        </mxCell>
        <mxCell id="8Rj5OR-w-8HBWn9BKFhG-84" value="7" style="ellipse;whiteSpace=wrap;html=1;aspect=fixed;" vertex="1" parent="1">
          <mxGeometry x="440" y="732" width="40" height="40" as="geometry" />
        </mxCell>
        <mxCell id="8Rj5OR-w-8HBWn9BKFhG-85" value="1" style="ellipse;whiteSpace=wrap;html=1;aspect=fixed;" vertex="1" parent="1">
          <mxGeometry x="241.5" y="812" width="40" height="40" as="geometry" />
        </mxCell>
        <mxCell id="8Rj5OR-w-8HBWn9BKFhG-86" value="13" style="ellipse;whiteSpace=wrap;html=1;aspect=fixed;" vertex="1" parent="1">
          <mxGeometry x="320" y="812" width="40" height="40" as="geometry" />
        </mxCell>
        <mxCell id="8Rj5OR-w-8HBWn9BKFhG-87" value="2" style="ellipse;whiteSpace=wrap;html=1;aspect=fixed;" vertex="1" parent="1">
          <mxGeometry x="400" y="812" width="40" height="40" as="geometry" />
        </mxCell>
        <mxCell id="8Rj5OR-w-8HBWn9BKFhG-88" value="" style="curved=1;endArrow=classic;html=1;rounded=0;exitX=0;exitY=0.5;exitDx=0;exitDy=0;entryX=0.5;entryY=0;entryDx=0;entryDy=0;" edge="1" parent="1" source="8Rj5OR-w-8HBWn9BKFhG-81" target="8Rj5OR-w-8HBWn9BKFhG-83">
          <mxGeometry width="50" height="50" relative="1" as="geometry">
            <mxPoint x="140" y="782" as="sourcePoint" />
            <mxPoint x="190" y="732" as="targetPoint" />
            <Array as="points">
              <mxPoint x="320" y="672" />
            </Array>
          </mxGeometry>
        </mxCell>
        <mxCell id="8Rj5OR-w-8HBWn9BKFhG-89" value="" style="curved=1;endArrow=classic;html=1;rounded=0;exitX=0;exitY=1;exitDx=0;exitDy=0;entryX=0.5;entryY=0;entryDx=0;entryDy=0;" edge="1" parent="1" source="8Rj5OR-w-8HBWn9BKFhG-83" target="8Rj5OR-w-8HBWn9BKFhG-85">
          <mxGeometry width="50" height="50" relative="1" as="geometry">
            <mxPoint x="268" y="752" as="sourcePoint" />
            <mxPoint x="210" y="812" as="targetPoint" />
            <Array as="points">
              <mxPoint x="262" y="772" />
            </Array>
          </mxGeometry>
        </mxCell>
        <mxCell id="8Rj5OR-w-8HBWn9BKFhG-90" value="" style="curved=1;endArrow=classic;html=1;rounded=0;exitX=1;exitY=1;exitDx=0;exitDy=0;entryX=0.5;entryY=0;entryDx=0;entryDy=0;" edge="1" parent="1" source="8Rj5OR-w-8HBWn9BKFhG-83" target="8Rj5OR-w-8HBWn9BKFhG-86">
          <mxGeometry width="50" height="50" relative="1" as="geometry">
            <mxPoint x="379" y="752" as="sourcePoint" />
            <mxPoint x="354" y="798" as="targetPoint" />
            <Array as="points">
              <mxPoint x="340" y="772" />
            </Array>
          </mxGeometry>
        </mxCell>
        <mxCell id="8Rj5OR-w-8HBWn9BKFhG-91" value="" style="curved=1;endArrow=classic;html=1;rounded=0;exitX=1;exitY=0.5;exitDx=0;exitDy=0;entryX=0.5;entryY=0;entryDx=0;entryDy=0;" edge="1" parent="1" source="8Rj5OR-w-8HBWn9BKFhG-81" target="8Rj5OR-w-8HBWn9BKFhG-84">
          <mxGeometry width="50" height="50" relative="1" as="geometry">
            <mxPoint x="568" y="662" as="sourcePoint" />
            <mxPoint x="510" y="722" as="targetPoint" />
            <Array as="points">
              <mxPoint x="460" y="672" />
            </Array>
          </mxGeometry>
        </mxCell>
        <mxCell id="8Rj5OR-w-8HBWn9BKFhG-92" value="" style="curved=1;endArrow=classic;html=1;rounded=0;exitX=0;exitY=1;exitDx=0;exitDy=0;entryX=0.5;entryY=0;entryDx=0;entryDy=0;" edge="1" parent="1">
          <mxGeometry width="50" height="50" relative="1" as="geometry">
            <mxPoint x="445" y="766" as="sourcePoint" />
            <mxPoint x="420" y="812" as="targetPoint" />
            <Array as="points">
              <mxPoint x="420" y="772" />
            </Array>
          </mxGeometry>
        </mxCell>
        <mxCell id="8Rj5OR-w-8HBWn9BKFhG-93" value="REPRESENTAÇÃO DA HEAP CONSTRUIDA" style="text;html=1;align=center;verticalAlign=middle;resizable=0;points=[];autosize=1;strokeColor=none;fillColor=none;" vertex="1" parent="1">
          <mxGeometry x="245" y="610" width="270" height="30" as="geometry" />
        </mxCell>
        <mxCell id="8Rj5OR-w-8HBWn9BKFhG-94" value="0" style="text;html=1;align=center;verticalAlign=middle;resizable=0;points=[];autosize=1;strokeColor=none;fillColor=none;" vertex="1" parent="1">
          <mxGeometry x="365" y="692" width="30" height="30" as="geometry" />
        </mxCell>
        <mxCell id="8Rj5OR-w-8HBWn9BKFhG-95" value="1" style="text;html=1;align=center;verticalAlign=middle;resizable=0;points=[];autosize=1;strokeColor=none;fillColor=none;" vertex="1" parent="1">
          <mxGeometry x="286.5" y="772" width="30" height="30" as="geometry" />
        </mxCell>
        <mxCell id="8Rj5OR-w-8HBWn9BKFhG-96" value="2" style="text;html=1;align=center;verticalAlign=middle;resizable=0;points=[];autosize=1;strokeColor=none;fillColor=none;" vertex="1" parent="1">
          <mxGeometry x="445" y="772" width="30" height="30" as="geometry" />
        </mxCell>
        <mxCell id="8Rj5OR-w-8HBWn9BKFhG-97" value="3" style="text;html=1;align=center;verticalAlign=middle;resizable=0;points=[];autosize=1;strokeColor=none;fillColor=none;" vertex="1" parent="1">
          <mxGeometry x="246.5" y="852" width="30" height="30" as="geometry" />
        </mxCell>
        <mxCell id="8Rj5OR-w-8HBWn9BKFhG-98" value="4" style="text;html=1;align=center;verticalAlign=middle;resizable=0;points=[];autosize=1;strokeColor=none;fillColor=none;" vertex="1" parent="1">
          <mxGeometry x="325" y="852" width="30" height="30" as="geometry" />
        </mxCell>
        <mxCell id="8Rj5OR-w-8HBWn9BKFhG-99" value="5" style="text;html=1;align=center;verticalAlign=middle;resizable=0;points=[];autosize=1;strokeColor=none;fillColor=none;" vertex="1" parent="1">
          <mxGeometry x="405" y="852" width="30" height="30" as="geometry" />
        </mxCell>
      </root>
    </mxGraphModel>
  </diagram>
  <diagram id="wCjz64IBxsLJyGyhINkb" name="Heap sort 2">
    <mxGraphModel dx="1723" dy="648" grid="1" gridSize="10" guides="1" tooltips="1" connect="1" arrows="1" fold="1" page="1" pageScale="1" pageWidth="827" pageHeight="1169" math="0" shadow="0">
      <root>
        <mxCell id="0" />
        <mxCell id="1" parent="0" />
        <mxCell id="Q847FwNQ0QFkaVLEE0cP-10" value="" style="shape=table;startSize=0;container=1;collapsible=0;childLayout=tableLayout;fontSize=16;" vertex="1" parent="1">
          <mxGeometry x="160" y="300" width="413" height="40" as="geometry" />
        </mxCell>
        <mxCell id="Q847FwNQ0QFkaVLEE0cP-11" value="" style="shape=tableRow;horizontal=0;startSize=0;swimlaneHead=0;swimlaneBody=0;strokeColor=inherit;top=0;left=0;bottom=0;right=0;collapsible=0;dropTarget=0;fillColor=none;points=[[0,0.5],[1,0.5]];portConstraint=eastwest;fontSize=16;" vertex="1" parent="Q847FwNQ0QFkaVLEE0cP-10">
          <mxGeometry width="413" height="40" as="geometry" />
        </mxCell>
        <mxCell id="Q847FwNQ0QFkaVLEE0cP-12" value="2" style="shape=partialRectangle;html=1;whiteSpace=wrap;connectable=0;strokeColor=inherit;overflow=hidden;fillColor=none;top=0;left=0;bottom=0;right=0;pointerEvents=1;fontSize=16;" vertex="1" parent="Q847FwNQ0QFkaVLEE0cP-11">
          <mxGeometry width="69" height="40" as="geometry">
            <mxRectangle width="69" height="40" as="alternateBounds" />
          </mxGeometry>
        </mxCell>
        <mxCell id="Q847FwNQ0QFkaVLEE0cP-13" value="22" style="shape=partialRectangle;html=1;whiteSpace=wrap;connectable=0;strokeColor=inherit;overflow=hidden;fillColor=none;top=0;left=0;bottom=0;right=0;pointerEvents=1;fontSize=16;" vertex="1" parent="Q847FwNQ0QFkaVLEE0cP-11">
          <mxGeometry x="69" width="68" height="40" as="geometry">
            <mxRectangle width="68" height="40" as="alternateBounds" />
          </mxGeometry>
        </mxCell>
        <mxCell id="Q847FwNQ0QFkaVLEE0cP-14" value="7" style="shape=partialRectangle;html=1;whiteSpace=wrap;connectable=0;strokeColor=inherit;overflow=hidden;fillColor=none;top=0;left=0;bottom=0;right=0;pointerEvents=1;fontSize=16;" vertex="1" parent="Q847FwNQ0QFkaVLEE0cP-11">
          <mxGeometry x="137" width="69" height="40" as="geometry">
            <mxRectangle width="69" height="40" as="alternateBounds" />
          </mxGeometry>
        </mxCell>
        <mxCell id="Q847FwNQ0QFkaVLEE0cP-15" value="1" style="shape=partialRectangle;html=1;whiteSpace=wrap;connectable=0;strokeColor=inherit;overflow=hidden;fillColor=none;top=0;left=0;bottom=0;right=0;pointerEvents=1;fontSize=16;" vertex="1" parent="Q847FwNQ0QFkaVLEE0cP-11">
          <mxGeometry x="206" width="69" height="40" as="geometry">
            <mxRectangle width="69" height="40" as="alternateBounds" />
          </mxGeometry>
        </mxCell>
        <mxCell id="Q847FwNQ0QFkaVLEE0cP-16" value="13" style="shape=partialRectangle;html=1;whiteSpace=wrap;connectable=0;strokeColor=inherit;overflow=hidden;fillColor=none;top=0;left=0;bottom=0;right=0;pointerEvents=1;fontSize=16;" vertex="1" parent="Q847FwNQ0QFkaVLEE0cP-11">
          <mxGeometry x="275" width="69" height="40" as="geometry">
            <mxRectangle width="69" height="40" as="alternateBounds" />
          </mxGeometry>
        </mxCell>
        <mxCell id="Q847FwNQ0QFkaVLEE0cP-17" value="35" style="shape=partialRectangle;html=1;whiteSpace=wrap;connectable=0;strokeColor=inherit;overflow=hidden;fillColor=none;top=0;left=0;bottom=0;right=0;pointerEvents=1;fontSize=16;" vertex="1" parent="Q847FwNQ0QFkaVLEE0cP-11">
          <mxGeometry x="344" width="69" height="40" as="geometry">
            <mxRectangle width="69" height="40" as="alternateBounds" />
          </mxGeometry>
        </mxCell>
        <mxCell id="Q847FwNQ0QFkaVLEE0cP-20" value="HEAP SORT - PASSO 2" style="text;html=1;align=center;verticalAlign=middle;resizable=0;points=[];autosize=1;strokeColor=none;fillColor=none;" vertex="1" parent="1">
          <mxGeometry x="45" y="30" width="150" height="30" as="geometry" />
        </mxCell>
        <mxCell id="Q847FwNQ0QFkaVLEE0cP-21" value="i = 0" style="text;html=1;align=center;verticalAlign=middle;resizable=0;points=[];autosize=1;strokeColor=none;fillColor=none;" vertex="1" parent="1">
          <mxGeometry x="40" y="185" width="50" height="30" as="geometry" />
        </mxCell>
        <mxCell id="Q847FwNQ0QFkaVLEE0cP-23" value="" style="shape=table;startSize=0;container=1;collapsible=0;childLayout=tableLayout;fontSize=16;" vertex="1" parent="1">
          <mxGeometry x="160" y="430" width="413" height="40" as="geometry" />
        </mxCell>
        <mxCell id="Q847FwNQ0QFkaVLEE0cP-24" value="" style="shape=tableRow;horizontal=0;startSize=0;swimlaneHead=0;swimlaneBody=0;strokeColor=inherit;top=0;left=0;bottom=0;right=0;collapsible=0;dropTarget=0;fillColor=none;points=[[0,0.5],[1,0.5]];portConstraint=eastwest;fontSize=16;" vertex="1" parent="Q847FwNQ0QFkaVLEE0cP-23">
          <mxGeometry width="413" height="40" as="geometry" />
        </mxCell>
        <mxCell id="Q847FwNQ0QFkaVLEE0cP-25" value="22" style="shape=partialRectangle;html=1;whiteSpace=wrap;connectable=0;strokeColor=inherit;overflow=hidden;fillColor=none;top=0;left=0;bottom=0;right=0;pointerEvents=1;fontSize=16;" vertex="1" parent="Q847FwNQ0QFkaVLEE0cP-24">
          <mxGeometry width="69" height="40" as="geometry">
            <mxRectangle width="69" height="40" as="alternateBounds" />
          </mxGeometry>
        </mxCell>
        <mxCell id="Q847FwNQ0QFkaVLEE0cP-26" value="2" style="shape=partialRectangle;html=1;whiteSpace=wrap;connectable=0;strokeColor=inherit;overflow=hidden;fillColor=none;top=0;left=0;bottom=0;right=0;pointerEvents=1;fontSize=16;" vertex="1" parent="Q847FwNQ0QFkaVLEE0cP-24">
          <mxGeometry x="69" width="68" height="40" as="geometry">
            <mxRectangle width="68" height="40" as="alternateBounds" />
          </mxGeometry>
        </mxCell>
        <mxCell id="Q847FwNQ0QFkaVLEE0cP-27" value="7" style="shape=partialRectangle;html=1;whiteSpace=wrap;connectable=0;strokeColor=inherit;overflow=hidden;fillColor=none;top=0;left=0;bottom=0;right=0;pointerEvents=1;fontSize=16;" vertex="1" parent="Q847FwNQ0QFkaVLEE0cP-24">
          <mxGeometry x="137" width="69" height="40" as="geometry">
            <mxRectangle width="69" height="40" as="alternateBounds" />
          </mxGeometry>
        </mxCell>
        <mxCell id="Q847FwNQ0QFkaVLEE0cP-28" value="1" style="shape=partialRectangle;html=1;whiteSpace=wrap;connectable=0;strokeColor=inherit;overflow=hidden;fillColor=none;top=0;left=0;bottom=0;right=0;pointerEvents=1;fontSize=16;" vertex="1" parent="Q847FwNQ0QFkaVLEE0cP-24">
          <mxGeometry x="206" width="69" height="40" as="geometry">
            <mxRectangle width="69" height="40" as="alternateBounds" />
          </mxGeometry>
        </mxCell>
        <mxCell id="Q847FwNQ0QFkaVLEE0cP-29" value="13" style="shape=partialRectangle;html=1;whiteSpace=wrap;connectable=0;strokeColor=inherit;overflow=hidden;fillColor=none;top=0;left=0;bottom=0;right=0;pointerEvents=1;fontSize=16;" vertex="1" parent="Q847FwNQ0QFkaVLEE0cP-24">
          <mxGeometry x="275" width="69" height="40" as="geometry">
            <mxRectangle width="69" height="40" as="alternateBounds" />
          </mxGeometry>
        </mxCell>
        <mxCell id="Q847FwNQ0QFkaVLEE0cP-30" value="35" style="shape=partialRectangle;html=1;whiteSpace=wrap;connectable=0;strokeColor=inherit;overflow=hidden;fillColor=none;top=0;left=0;bottom=0;right=0;pointerEvents=1;fontSize=16;" vertex="1" parent="Q847FwNQ0QFkaVLEE0cP-24">
          <mxGeometry x="344" width="69" height="40" as="geometry">
            <mxRectangle width="69" height="40" as="alternateBounds" />
          </mxGeometry>
        </mxCell>
        <mxCell id="Q847FwNQ0QFkaVLEE0cP-32" value="" style="shape=table;startSize=0;container=1;collapsible=0;childLayout=tableLayout;fontSize=16;" vertex="1" parent="1">
          <mxGeometry x="160" y="180" width="413" height="40" as="geometry" />
        </mxCell>
        <mxCell id="Q847FwNQ0QFkaVLEE0cP-33" value="" style="shape=tableRow;horizontal=0;startSize=0;swimlaneHead=0;swimlaneBody=0;strokeColor=inherit;top=0;left=0;bottom=0;right=0;collapsible=0;dropTarget=0;fillColor=none;points=[[0,0.5],[1,0.5]];portConstraint=eastwest;fontSize=16;" vertex="1" parent="Q847FwNQ0QFkaVLEE0cP-32">
          <mxGeometry width="413" height="40" as="geometry" />
        </mxCell>
        <mxCell id="Q847FwNQ0QFkaVLEE0cP-34" value="35" style="shape=partialRectangle;html=1;whiteSpace=wrap;connectable=0;strokeColor=inherit;overflow=hidden;fillColor=none;top=0;left=0;bottom=0;right=0;pointerEvents=1;fontSize=16;" vertex="1" parent="Q847FwNQ0QFkaVLEE0cP-33">
          <mxGeometry width="69" height="40" as="geometry">
            <mxRectangle width="69" height="40" as="alternateBounds" />
          </mxGeometry>
        </mxCell>
        <mxCell id="Q847FwNQ0QFkaVLEE0cP-35" value="22" style="shape=partialRectangle;html=1;whiteSpace=wrap;connectable=0;strokeColor=inherit;overflow=hidden;fillColor=none;top=0;left=0;bottom=0;right=0;pointerEvents=1;fontSize=16;" vertex="1" parent="Q847FwNQ0QFkaVLEE0cP-33">
          <mxGeometry x="69" width="68" height="40" as="geometry">
            <mxRectangle width="68" height="40" as="alternateBounds" />
          </mxGeometry>
        </mxCell>
        <mxCell id="Q847FwNQ0QFkaVLEE0cP-36" value="7" style="shape=partialRectangle;html=1;whiteSpace=wrap;connectable=0;strokeColor=inherit;overflow=hidden;fillColor=none;top=0;left=0;bottom=0;right=0;pointerEvents=1;fontSize=16;" vertex="1" parent="Q847FwNQ0QFkaVLEE0cP-33">
          <mxGeometry x="137" width="69" height="40" as="geometry">
            <mxRectangle width="69" height="40" as="alternateBounds" />
          </mxGeometry>
        </mxCell>
        <mxCell id="Q847FwNQ0QFkaVLEE0cP-37" value="1" style="shape=partialRectangle;html=1;whiteSpace=wrap;connectable=0;strokeColor=inherit;overflow=hidden;fillColor=none;top=0;left=0;bottom=0;right=0;pointerEvents=1;fontSize=16;" vertex="1" parent="Q847FwNQ0QFkaVLEE0cP-33">
          <mxGeometry x="206" width="69" height="40" as="geometry">
            <mxRectangle width="69" height="40" as="alternateBounds" />
          </mxGeometry>
        </mxCell>
        <mxCell id="Q847FwNQ0QFkaVLEE0cP-38" value="13" style="shape=partialRectangle;html=1;whiteSpace=wrap;connectable=0;strokeColor=inherit;overflow=hidden;fillColor=none;top=0;left=0;bottom=0;right=0;pointerEvents=1;fontSize=16;" vertex="1" parent="Q847FwNQ0QFkaVLEE0cP-33">
          <mxGeometry x="275" width="69" height="40" as="geometry">
            <mxRectangle width="69" height="40" as="alternateBounds" />
          </mxGeometry>
        </mxCell>
        <mxCell id="Q847FwNQ0QFkaVLEE0cP-39" value="2" style="shape=partialRectangle;html=1;whiteSpace=wrap;connectable=0;strokeColor=inherit;overflow=hidden;fillColor=none;top=0;left=0;bottom=0;right=0;pointerEvents=1;fontSize=16;" vertex="1" parent="Q847FwNQ0QFkaVLEE0cP-33">
          <mxGeometry x="344" width="69" height="40" as="geometry">
            <mxRectangle width="69" height="40" as="alternateBounds" />
          </mxGeometry>
        </mxCell>
        <mxCell id="Q847FwNQ0QFkaVLEE0cP-40" value="TROCA" style="text;html=1;align=center;verticalAlign=middle;resizable=0;points=[];autosize=1;strokeColor=none;fillColor=none;" vertex="1" parent="1">
          <mxGeometry x="600" y="170" width="70" height="30" as="geometry" />
        </mxCell>
        <mxCell id="Q847FwNQ0QFkaVLEE0cP-41" value="TROCA" style="text;html=1;align=center;verticalAlign=middle;resizable=0;points=[];autosize=1;strokeColor=none;fillColor=none;" vertex="1" parent="1">
          <mxGeometry x="585" y="300" width="70" height="30" as="geometry" />
        </mxCell>
        <mxCell id="Q847FwNQ0QFkaVLEE0cP-42" value="ORDENAÇÃO&lt;div&gt;DA&lt;/div&gt;&lt;div&gt;HEAP&lt;/div&gt;" style="text;html=1;align=center;verticalAlign=middle;resizable=0;points=[];autosize=1;strokeColor=none;fillColor=none;" vertex="1" parent="1">
          <mxGeometry x="316.5" y="40" width="100" height="60" as="geometry" />
        </mxCell>
        <mxCell id="Q847FwNQ0QFkaVLEE0cP-45" value="35 &amp;gt; 2" style="text;html=1;align=center;verticalAlign=middle;resizable=0;points=[];autosize=1;strokeColor=none;fillColor=none;" vertex="1" parent="1">
          <mxGeometry x="605" y="190" width="60" height="30" as="geometry" />
        </mxCell>
        <mxCell id="Q847FwNQ0QFkaVLEE0cP-47" value="22 &amp;gt; 7 &amp;gt; 2" style="text;html=1;align=center;verticalAlign=middle;resizable=0;points=[];autosize=1;strokeColor=none;fillColor=none;" vertex="1" parent="1">
          <mxGeometry x="595" y="330" width="80" height="30" as="geometry" />
        </mxCell>
        <mxCell id="Q847FwNQ0QFkaVLEE0cP-50" value="" style="curved=1;endArrow=classic;html=1;rounded=0;entryX=0.266;entryY=0;entryDx=0;entryDy=0;entryPerimeter=0;exitX=0.588;exitY=-0.075;exitDx=0;exitDy=0;exitPerimeter=0;startArrow=classic;startFill=1;" edge="1" parent="1" source="Q847FwNQ0QFkaVLEE0cP-24">
          <mxGeometry width="50" height="50" relative="1" as="geometry">
            <mxPoint x="336.3929999999999" y="426.84000000000003" as="sourcePoint" />
            <mxPoint x="258.1" y="430" as="targetPoint" />
            <Array as="points">
              <mxPoint x="370" y="390" />
              <mxPoint x="320" y="380" />
              <mxPoint x="278.1" y="400" />
            </Array>
          </mxGeometry>
        </mxCell>
        <mxCell id="Q847FwNQ0QFkaVLEE0cP-51" value="" style="curved=1;endArrow=classic;html=1;rounded=0;entryX=0.268;entryY=1.055;entryDx=0;entryDy=0;entryPerimeter=0;exitX=0.739;exitY=0.988;exitDx=0;exitDy=0;exitPerimeter=0;startArrow=classic;startFill=1;" edge="1" parent="1" source="Q847FwNQ0QFkaVLEE0cP-24">
          <mxGeometry width="50" height="50" relative="1" as="geometry">
            <mxPoint x="413.87300000000005" y="470.28" as="sourcePoint" />
            <mxPoint x="270" y="470" as="targetPoint" />
            <Array as="points">
              <mxPoint x="400" y="510" />
              <mxPoint x="300" y="500" />
            </Array>
          </mxGeometry>
        </mxCell>
        <mxCell id="Q847FwNQ0QFkaVLEE0cP-54" value="TROCA" style="text;html=1;align=center;verticalAlign=middle;resizable=0;points=[];autosize=1;strokeColor=none;fillColor=none;" vertex="1" parent="1">
          <mxGeometry x="600" y="420" width="70" height="30" as="geometry" />
        </mxCell>
        <mxCell id="Q847FwNQ0QFkaVLEE0cP-55" value="13 &amp;gt; 2 &amp;gt; 1" style="text;html=1;align=center;verticalAlign=middle;resizable=0;points=[];autosize=1;strokeColor=none;fillColor=none;" vertex="1" parent="1">
          <mxGeometry x="595" y="440" width="80" height="30" as="geometry" />
        </mxCell>
        <mxCell id="Q847FwNQ0QFkaVLEE0cP-57" value="1" style="ellipse;whiteSpace=wrap;html=1;aspect=fixed;" vertex="1" parent="1">
          <mxGeometry x="368.5" y="1712" width="40" height="40" as="geometry" />
        </mxCell>
        <mxCell id="Q847FwNQ0QFkaVLEE0cP-58" value="2" style="ellipse;whiteSpace=wrap;html=1;aspect=fixed;" vertex="1" parent="1">
          <mxGeometry x="290" y="1792" width="40" height="40" as="geometry" />
        </mxCell>
        <mxCell id="Q847FwNQ0QFkaVLEE0cP-59" value="7" style="ellipse;whiteSpace=wrap;html=1;aspect=fixed;" vertex="1" parent="1">
          <mxGeometry x="448.5" y="1792" width="40" height="40" as="geometry" />
        </mxCell>
        <mxCell id="Q847FwNQ0QFkaVLEE0cP-60" value="13" style="ellipse;whiteSpace=wrap;html=1;aspect=fixed;" vertex="1" parent="1">
          <mxGeometry x="250" y="1872" width="40" height="40" as="geometry" />
        </mxCell>
        <mxCell id="Q847FwNQ0QFkaVLEE0cP-61" value="22" style="ellipse;whiteSpace=wrap;html=1;aspect=fixed;" vertex="1" parent="1">
          <mxGeometry x="328.5" y="1872" width="40" height="40" as="geometry" />
        </mxCell>
        <mxCell id="Q847FwNQ0QFkaVLEE0cP-62" value="35" style="ellipse;whiteSpace=wrap;html=1;aspect=fixed;" vertex="1" parent="1">
          <mxGeometry x="408.5" y="1872" width="40" height="40" as="geometry" />
        </mxCell>
        <mxCell id="Q847FwNQ0QFkaVLEE0cP-63" value="" style="curved=1;endArrow=classic;html=1;rounded=0;exitX=0;exitY=0.5;exitDx=0;exitDy=0;entryX=0.5;entryY=0;entryDx=0;entryDy=0;" edge="1" parent="1" source="Q847FwNQ0QFkaVLEE0cP-57" target="Q847FwNQ0QFkaVLEE0cP-58">
          <mxGeometry width="50" height="50" relative="1" as="geometry">
            <mxPoint x="148.5" y="1842" as="sourcePoint" />
            <mxPoint x="198.5" y="1792" as="targetPoint" />
            <Array as="points">
              <mxPoint x="328.5" y="1732" />
            </Array>
          </mxGeometry>
        </mxCell>
        <mxCell id="Q847FwNQ0QFkaVLEE0cP-64" value="" style="curved=1;endArrow=classic;html=1;rounded=0;exitX=0;exitY=1;exitDx=0;exitDy=0;entryX=0.5;entryY=0;entryDx=0;entryDy=0;" edge="1" parent="1" source="Q847FwNQ0QFkaVLEE0cP-58" target="Q847FwNQ0QFkaVLEE0cP-60">
          <mxGeometry width="50" height="50" relative="1" as="geometry">
            <mxPoint x="276.5" y="1812" as="sourcePoint" />
            <mxPoint x="218.5" y="1872" as="targetPoint" />
            <Array as="points">
              <mxPoint x="270.5" y="1832" />
            </Array>
          </mxGeometry>
        </mxCell>
        <mxCell id="Q847FwNQ0QFkaVLEE0cP-65" value="" style="curved=1;endArrow=classic;html=1;rounded=0;exitX=1;exitY=1;exitDx=0;exitDy=0;entryX=0.5;entryY=0;entryDx=0;entryDy=0;" edge="1" parent="1" source="Q847FwNQ0QFkaVLEE0cP-58" target="Q847FwNQ0QFkaVLEE0cP-61">
          <mxGeometry width="50" height="50" relative="1" as="geometry">
            <mxPoint x="387.5" y="1812" as="sourcePoint" />
            <mxPoint x="362.5" y="1858" as="targetPoint" />
            <Array as="points">
              <mxPoint x="348.5" y="1832" />
            </Array>
          </mxGeometry>
        </mxCell>
        <mxCell id="Q847FwNQ0QFkaVLEE0cP-66" value="" style="curved=1;endArrow=classic;html=1;rounded=0;exitX=1;exitY=0.5;exitDx=0;exitDy=0;entryX=0.5;entryY=0;entryDx=0;entryDy=0;" edge="1" parent="1" source="Q847FwNQ0QFkaVLEE0cP-57" target="Q847FwNQ0QFkaVLEE0cP-59">
          <mxGeometry width="50" height="50" relative="1" as="geometry">
            <mxPoint x="576.5" y="1722" as="sourcePoint" />
            <mxPoint x="518.5" y="1782" as="targetPoint" />
            <Array as="points">
              <mxPoint x="468.5" y="1732" />
            </Array>
          </mxGeometry>
        </mxCell>
        <mxCell id="Q847FwNQ0QFkaVLEE0cP-67" value="" style="curved=1;endArrow=classic;html=1;rounded=0;exitX=0;exitY=1;exitDx=0;exitDy=0;entryX=0.5;entryY=0;entryDx=0;entryDy=0;" edge="1" parent="1">
          <mxGeometry width="50" height="50" relative="1" as="geometry">
            <mxPoint x="453.5" y="1826" as="sourcePoint" />
            <mxPoint x="428.5" y="1872" as="targetPoint" />
            <Array as="points">
              <mxPoint x="428.5" y="1832" />
            </Array>
          </mxGeometry>
        </mxCell>
        <mxCell id="Q847FwNQ0QFkaVLEE0cP-68" value="REPRESENTAÇÃO DA HEAP ORDENADA" style="text;html=1;align=center;verticalAlign=middle;resizable=0;points=[];autosize=1;strokeColor=none;fillColor=none;" vertex="1" parent="1">
          <mxGeometry x="258.5" y="1670" width="260" height="30" as="geometry" />
        </mxCell>
        <mxCell id="Q847FwNQ0QFkaVLEE0cP-69" value="0" style="text;html=1;align=center;verticalAlign=middle;resizable=0;points=[];autosize=1;strokeColor=none;fillColor=none;" vertex="1" parent="1">
          <mxGeometry x="373.5" y="1752" width="30" height="30" as="geometry" />
        </mxCell>
        <mxCell id="Q847FwNQ0QFkaVLEE0cP-70" value="1" style="text;html=1;align=center;verticalAlign=middle;resizable=0;points=[];autosize=1;strokeColor=none;fillColor=none;" vertex="1" parent="1">
          <mxGeometry x="295" y="1832" width="30" height="30" as="geometry" />
        </mxCell>
        <mxCell id="Q847FwNQ0QFkaVLEE0cP-71" value="2" style="text;html=1;align=center;verticalAlign=middle;resizable=0;points=[];autosize=1;strokeColor=none;fillColor=none;" vertex="1" parent="1">
          <mxGeometry x="453.5" y="1832" width="30" height="30" as="geometry" />
        </mxCell>
        <mxCell id="Q847FwNQ0QFkaVLEE0cP-72" value="3" style="text;html=1;align=center;verticalAlign=middle;resizable=0;points=[];autosize=1;strokeColor=none;fillColor=none;" vertex="1" parent="1">
          <mxGeometry x="255" y="1912" width="30" height="30" as="geometry" />
        </mxCell>
        <mxCell id="Q847FwNQ0QFkaVLEE0cP-73" value="4" style="text;html=1;align=center;verticalAlign=middle;resizable=0;points=[];autosize=1;strokeColor=none;fillColor=none;" vertex="1" parent="1">
          <mxGeometry x="333.5" y="1912" width="30" height="30" as="geometry" />
        </mxCell>
        <mxCell id="Q847FwNQ0QFkaVLEE0cP-74" value="5" style="text;html=1;align=center;verticalAlign=middle;resizable=0;points=[];autosize=1;strokeColor=none;fillColor=none;" vertex="1" parent="1">
          <mxGeometry x="413.5" y="1912" width="30" height="30" as="geometry" />
        </mxCell>
        <mxCell id="Q847FwNQ0QFkaVLEE0cP-75" value="" style="curved=1;endArrow=classic;html=1;rounded=0;entryX=0.266;entryY=0;entryDx=0;entryDy=0;entryPerimeter=0;exitX=0.915;exitY=-0.05;exitDx=0;exitDy=0;exitPerimeter=0;startArrow=classic;startFill=1;" edge="1" parent="1" source="Q847FwNQ0QFkaVLEE0cP-33">
          <mxGeometry width="50" height="50" relative="1" as="geometry">
            <mxPoint x="327" y="179" as="sourcePoint" />
            <mxPoint x="195" y="180" as="targetPoint" />
            <Array as="points">
              <mxPoint x="410" y="130" />
              <mxPoint x="215" y="150" />
            </Array>
          </mxGeometry>
        </mxCell>
        <mxCell id="Q847FwNQ0QFkaVLEE0cP-18" value="" style="curved=1;endArrow=classic;html=1;rounded=0;entryX=0.266;entryY=0;entryDx=0;entryDy=0;entryPerimeter=0;exitX=0.257;exitY=-0.025;exitDx=0;exitDy=0;exitPerimeter=0;startArrow=classic;startFill=1;" edge="1" parent="1" source="Q847FwNQ0QFkaVLEE0cP-11">
          <mxGeometry width="50" height="50" relative="1" as="geometry">
            <mxPoint x="322.571" y="299.4000000000001" as="sourcePoint" />
            <mxPoint x="189.99800000000016" y="300" as="targetPoint" />
            <Array as="points">
              <mxPoint x="240" y="280" />
              <mxPoint x="210.14" y="280" />
            </Array>
          </mxGeometry>
        </mxCell>
        <mxCell id="Q847FwNQ0QFkaVLEE0cP-19" value="" style="curved=1;endArrow=classic;html=1;rounded=0;entryX=0.268;entryY=1.055;entryDx=0;entryDy=0;entryPerimeter=0;exitX=0.426;exitY=1.025;exitDx=0;exitDy=0;exitPerimeter=0;startArrow=classic;startFill=1;" edge="1" parent="1" source="Q847FwNQ0QFkaVLEE0cP-11">
          <mxGeometry width="50" height="50" relative="1" as="geometry">
            <mxPoint x="389.896" y="342.20000000000005" as="sourcePoint" />
            <mxPoint x="190.0040000000002" y="342.20000000000005" as="targetPoint" />
            <Array as="points">
              <mxPoint x="290" y="370" />
              <mxPoint x="229.32" y="360" />
            </Array>
          </mxGeometry>
        </mxCell>
        <mxCell id="Q847FwNQ0QFkaVLEE0cP-76" value="" style="shape=table;startSize=0;container=1;collapsible=0;childLayout=tableLayout;fontSize=16;" vertex="1" parent="1">
          <mxGeometry x="160" y="560" width="413" height="40" as="geometry" />
        </mxCell>
        <mxCell id="Q847FwNQ0QFkaVLEE0cP-77" value="" style="shape=tableRow;horizontal=0;startSize=0;swimlaneHead=0;swimlaneBody=0;strokeColor=inherit;top=0;left=0;bottom=0;right=0;collapsible=0;dropTarget=0;fillColor=none;points=[[0,0.5],[1,0.5]];portConstraint=eastwest;fontSize=16;" vertex="1" parent="Q847FwNQ0QFkaVLEE0cP-76">
          <mxGeometry width="413" height="40" as="geometry" />
        </mxCell>
        <mxCell id="Q847FwNQ0QFkaVLEE0cP-78" value="22" style="shape=partialRectangle;html=1;whiteSpace=wrap;connectable=0;strokeColor=inherit;overflow=hidden;fillColor=none;top=0;left=0;bottom=0;right=0;pointerEvents=1;fontSize=16;" vertex="1" parent="Q847FwNQ0QFkaVLEE0cP-77">
          <mxGeometry width="69" height="40" as="geometry">
            <mxRectangle width="69" height="40" as="alternateBounds" />
          </mxGeometry>
        </mxCell>
        <mxCell id="Q847FwNQ0QFkaVLEE0cP-79" value="13" style="shape=partialRectangle;html=1;whiteSpace=wrap;connectable=0;strokeColor=inherit;overflow=hidden;fillColor=none;top=0;left=0;bottom=0;right=0;pointerEvents=1;fontSize=16;" vertex="1" parent="Q847FwNQ0QFkaVLEE0cP-77">
          <mxGeometry x="69" width="68" height="40" as="geometry">
            <mxRectangle width="68" height="40" as="alternateBounds" />
          </mxGeometry>
        </mxCell>
        <mxCell id="Q847FwNQ0QFkaVLEE0cP-80" value="7" style="shape=partialRectangle;html=1;whiteSpace=wrap;connectable=0;strokeColor=inherit;overflow=hidden;fillColor=none;top=0;left=0;bottom=0;right=0;pointerEvents=1;fontSize=16;" vertex="1" parent="Q847FwNQ0QFkaVLEE0cP-77">
          <mxGeometry x="137" width="69" height="40" as="geometry">
            <mxRectangle width="69" height="40" as="alternateBounds" />
          </mxGeometry>
        </mxCell>
        <mxCell id="Q847FwNQ0QFkaVLEE0cP-81" value="1" style="shape=partialRectangle;html=1;whiteSpace=wrap;connectable=0;strokeColor=inherit;overflow=hidden;fillColor=none;top=0;left=0;bottom=0;right=0;pointerEvents=1;fontSize=16;" vertex="1" parent="Q847FwNQ0QFkaVLEE0cP-77">
          <mxGeometry x="206" width="69" height="40" as="geometry">
            <mxRectangle width="69" height="40" as="alternateBounds" />
          </mxGeometry>
        </mxCell>
        <mxCell id="Q847FwNQ0QFkaVLEE0cP-82" value="2" style="shape=partialRectangle;html=1;whiteSpace=wrap;connectable=0;strokeColor=inherit;overflow=hidden;fillColor=none;top=0;left=0;bottom=0;right=0;pointerEvents=1;fontSize=16;" vertex="1" parent="Q847FwNQ0QFkaVLEE0cP-77">
          <mxGeometry x="275" width="69" height="40" as="geometry">
            <mxRectangle width="69" height="40" as="alternateBounds" />
          </mxGeometry>
        </mxCell>
        <mxCell id="Q847FwNQ0QFkaVLEE0cP-83" value="35" style="shape=partialRectangle;html=1;whiteSpace=wrap;connectable=0;strokeColor=inherit;overflow=hidden;fillColor=none;top=0;left=0;bottom=0;right=0;pointerEvents=1;fontSize=16;" vertex="1" parent="Q847FwNQ0QFkaVLEE0cP-77">
          <mxGeometry x="344" width="69" height="40" as="geometry">
            <mxRectangle width="69" height="40" as="alternateBounds" />
          </mxGeometry>
        </mxCell>
        <mxCell id="Q847FwNQ0QFkaVLEE0cP-86" value="TROCA" style="text;html=1;align=center;verticalAlign=middle;resizable=0;points=[];autosize=1;strokeColor=none;fillColor=none;" vertex="1" parent="1">
          <mxGeometry x="600" y="550" width="70" height="30" as="geometry" />
        </mxCell>
        <mxCell id="Q847FwNQ0QFkaVLEE0cP-87" value="22 &amp;gt; 2" style="text;html=1;align=center;verticalAlign=middle;resizable=0;points=[];autosize=1;strokeColor=none;fillColor=none;" vertex="1" parent="1">
          <mxGeometry x="605" y="570" width="60" height="30" as="geometry" />
        </mxCell>
        <mxCell id="Q847FwNQ0QFkaVLEE0cP-88" value="i = 1" style="text;html=1;align=center;verticalAlign=middle;resizable=0;points=[];autosize=1;strokeColor=none;fillColor=none;" vertex="1" parent="1">
          <mxGeometry x="40" y="565" width="50" height="30" as="geometry" />
        </mxCell>
        <mxCell id="Q847FwNQ0QFkaVLEE0cP-89" value="" style="curved=1;endArrow=classic;html=1;rounded=0;entryX=0.266;entryY=0;entryDx=0;entryDy=0;entryPerimeter=0;startArrow=classic;startFill=1;" edge="1" parent="1">
          <mxGeometry width="50" height="50" relative="1" as="geometry">
            <mxPoint x="470" y="560" as="sourcePoint" />
            <mxPoint x="190" y="560" as="targetPoint" />
            <Array as="points">
              <mxPoint x="400" y="520" />
              <mxPoint x="220" y="530" />
            </Array>
          </mxGeometry>
        </mxCell>
        <mxCell id="Q847FwNQ0QFkaVLEE0cP-90" value="" style="shape=table;startSize=0;container=1;collapsible=0;childLayout=tableLayout;fontSize=16;" vertex="1" parent="1">
          <mxGeometry x="160" y="630" width="413" height="40" as="geometry" />
        </mxCell>
        <mxCell id="Q847FwNQ0QFkaVLEE0cP-91" value="" style="shape=tableRow;horizontal=0;startSize=0;swimlaneHead=0;swimlaneBody=0;strokeColor=inherit;top=0;left=0;bottom=0;right=0;collapsible=0;dropTarget=0;fillColor=none;points=[[0,0.5],[1,0.5]];portConstraint=eastwest;fontSize=16;" vertex="1" parent="Q847FwNQ0QFkaVLEE0cP-90">
          <mxGeometry width="413" height="40" as="geometry" />
        </mxCell>
        <mxCell id="Q847FwNQ0QFkaVLEE0cP-92" value="2" style="shape=partialRectangle;html=1;whiteSpace=wrap;connectable=0;strokeColor=inherit;overflow=hidden;fillColor=none;top=0;left=0;bottom=0;right=0;pointerEvents=1;fontSize=16;" vertex="1" parent="Q847FwNQ0QFkaVLEE0cP-91">
          <mxGeometry width="69" height="40" as="geometry">
            <mxRectangle width="69" height="40" as="alternateBounds" />
          </mxGeometry>
        </mxCell>
        <mxCell id="Q847FwNQ0QFkaVLEE0cP-93" value="13" style="shape=partialRectangle;html=1;whiteSpace=wrap;connectable=0;strokeColor=inherit;overflow=hidden;fillColor=none;top=0;left=0;bottom=0;right=0;pointerEvents=1;fontSize=16;" vertex="1" parent="Q847FwNQ0QFkaVLEE0cP-91">
          <mxGeometry x="69" width="68" height="40" as="geometry">
            <mxRectangle width="68" height="40" as="alternateBounds" />
          </mxGeometry>
        </mxCell>
        <mxCell id="Q847FwNQ0QFkaVLEE0cP-94" value="7" style="shape=partialRectangle;html=1;whiteSpace=wrap;connectable=0;strokeColor=inherit;overflow=hidden;fillColor=none;top=0;left=0;bottom=0;right=0;pointerEvents=1;fontSize=16;" vertex="1" parent="Q847FwNQ0QFkaVLEE0cP-91">
          <mxGeometry x="137" width="69" height="40" as="geometry">
            <mxRectangle width="69" height="40" as="alternateBounds" />
          </mxGeometry>
        </mxCell>
        <mxCell id="Q847FwNQ0QFkaVLEE0cP-95" value="1" style="shape=partialRectangle;html=1;whiteSpace=wrap;connectable=0;strokeColor=inherit;overflow=hidden;fillColor=none;top=0;left=0;bottom=0;right=0;pointerEvents=1;fontSize=16;" vertex="1" parent="Q847FwNQ0QFkaVLEE0cP-91">
          <mxGeometry x="206" width="69" height="40" as="geometry">
            <mxRectangle width="69" height="40" as="alternateBounds" />
          </mxGeometry>
        </mxCell>
        <mxCell id="Q847FwNQ0QFkaVLEE0cP-96" value="22" style="shape=partialRectangle;html=1;whiteSpace=wrap;connectable=0;strokeColor=inherit;overflow=hidden;fillColor=none;top=0;left=0;bottom=0;right=0;pointerEvents=1;fontSize=16;" vertex="1" parent="Q847FwNQ0QFkaVLEE0cP-91">
          <mxGeometry x="275" width="69" height="40" as="geometry">
            <mxRectangle width="69" height="40" as="alternateBounds" />
          </mxGeometry>
        </mxCell>
        <mxCell id="Q847FwNQ0QFkaVLEE0cP-97" value="35" style="shape=partialRectangle;html=1;whiteSpace=wrap;connectable=0;strokeColor=inherit;overflow=hidden;fillColor=none;top=0;left=0;bottom=0;right=0;pointerEvents=1;fontSize=16;" vertex="1" parent="Q847FwNQ0QFkaVLEE0cP-91">
          <mxGeometry x="344" width="69" height="40" as="geometry">
            <mxRectangle width="69" height="40" as="alternateBounds" />
          </mxGeometry>
        </mxCell>
        <mxCell id="Q847FwNQ0QFkaVLEE0cP-98" value="TROCA" style="text;html=1;align=center;verticalAlign=middle;resizable=0;points=[];autosize=1;strokeColor=none;fillColor=none;" vertex="1" parent="1">
          <mxGeometry x="600" y="630" width="70" height="30" as="geometry" />
        </mxCell>
        <mxCell id="Q847FwNQ0QFkaVLEE0cP-99" value="13 &amp;gt; 7 &amp;gt; 2" style="text;html=1;align=center;verticalAlign=middle;resizable=0;points=[];autosize=1;strokeColor=none;fillColor=none;" vertex="1" parent="1">
          <mxGeometry x="595" y="660" width="80" height="30" as="geometry" />
        </mxCell>
        <mxCell id="Q847FwNQ0QFkaVLEE0cP-100" value="" style="curved=1;endArrow=classic;html=1;rounded=0;entryX=0.266;entryY=0;entryDx=0;entryDy=0;entryPerimeter=0;exitX=0.257;exitY=-0.025;exitDx=0;exitDy=0;exitPerimeter=0;startArrow=classic;startFill=1;" edge="1" parent="1" source="Q847FwNQ0QFkaVLEE0cP-91">
          <mxGeometry width="50" height="50" relative="1" as="geometry">
            <mxPoint x="322.571" y="629.4000000000001" as="sourcePoint" />
            <mxPoint x="189.99800000000016" y="630" as="targetPoint" />
            <Array as="points">
              <mxPoint x="240" y="610" />
              <mxPoint x="210.14" y="610" />
            </Array>
          </mxGeometry>
        </mxCell>
        <mxCell id="Q847FwNQ0QFkaVLEE0cP-101" value="" style="curved=1;endArrow=classic;html=1;rounded=0;entryX=0.268;entryY=1.055;entryDx=0;entryDy=0;entryPerimeter=0;exitX=0.426;exitY=1.025;exitDx=0;exitDy=0;exitPerimeter=0;startArrow=classic;startFill=1;" edge="1" parent="1" source="Q847FwNQ0QFkaVLEE0cP-91">
          <mxGeometry width="50" height="50" relative="1" as="geometry">
            <mxPoint x="389.896" y="672.2" as="sourcePoint" />
            <mxPoint x="190.0040000000002" y="672.2" as="targetPoint" />
            <Array as="points">
              <mxPoint x="290" y="700" />
              <mxPoint x="229.32" y="690" />
            </Array>
          </mxGeometry>
        </mxCell>
        <mxCell id="Q847FwNQ0QFkaVLEE0cP-102" value="" style="shape=table;startSize=0;container=1;collapsible=0;childLayout=tableLayout;fontSize=16;" vertex="1" parent="1">
          <mxGeometry x="160" y="720" width="413" height="40" as="geometry" />
        </mxCell>
        <mxCell id="Q847FwNQ0QFkaVLEE0cP-103" value="" style="shape=tableRow;horizontal=0;startSize=0;swimlaneHead=0;swimlaneBody=0;strokeColor=inherit;top=0;left=0;bottom=0;right=0;collapsible=0;dropTarget=0;fillColor=none;points=[[0,0.5],[1,0.5]];portConstraint=eastwest;fontSize=16;" vertex="1" parent="Q847FwNQ0QFkaVLEE0cP-102">
          <mxGeometry width="413" height="40" as="geometry" />
        </mxCell>
        <mxCell id="Q847FwNQ0QFkaVLEE0cP-104" value="13" style="shape=partialRectangle;html=1;whiteSpace=wrap;connectable=0;strokeColor=inherit;overflow=hidden;fillColor=none;top=0;left=0;bottom=0;right=0;pointerEvents=1;fontSize=16;" vertex="1" parent="Q847FwNQ0QFkaVLEE0cP-103">
          <mxGeometry width="69" height="40" as="geometry">
            <mxRectangle width="69" height="40" as="alternateBounds" />
          </mxGeometry>
        </mxCell>
        <mxCell id="Q847FwNQ0QFkaVLEE0cP-105" value="2" style="shape=partialRectangle;html=1;whiteSpace=wrap;connectable=0;strokeColor=inherit;overflow=hidden;fillColor=none;top=0;left=0;bottom=0;right=0;pointerEvents=1;fontSize=16;" vertex="1" parent="Q847FwNQ0QFkaVLEE0cP-103">
          <mxGeometry x="69" width="68" height="40" as="geometry">
            <mxRectangle width="68" height="40" as="alternateBounds" />
          </mxGeometry>
        </mxCell>
        <mxCell id="Q847FwNQ0QFkaVLEE0cP-106" value="7" style="shape=partialRectangle;html=1;whiteSpace=wrap;connectable=0;strokeColor=inherit;overflow=hidden;fillColor=none;top=0;left=0;bottom=0;right=0;pointerEvents=1;fontSize=16;" vertex="1" parent="Q847FwNQ0QFkaVLEE0cP-103">
          <mxGeometry x="137" width="69" height="40" as="geometry">
            <mxRectangle width="69" height="40" as="alternateBounds" />
          </mxGeometry>
        </mxCell>
        <mxCell id="Q847FwNQ0QFkaVLEE0cP-107" value="1" style="shape=partialRectangle;html=1;whiteSpace=wrap;connectable=0;strokeColor=inherit;overflow=hidden;fillColor=none;top=0;left=0;bottom=0;right=0;pointerEvents=1;fontSize=16;" vertex="1" parent="Q847FwNQ0QFkaVLEE0cP-103">
          <mxGeometry x="206" width="69" height="40" as="geometry">
            <mxRectangle width="69" height="40" as="alternateBounds" />
          </mxGeometry>
        </mxCell>
        <mxCell id="Q847FwNQ0QFkaVLEE0cP-108" value="22" style="shape=partialRectangle;html=1;whiteSpace=wrap;connectable=0;strokeColor=inherit;overflow=hidden;fillColor=none;top=0;left=0;bottom=0;right=0;pointerEvents=1;fontSize=16;" vertex="1" parent="Q847FwNQ0QFkaVLEE0cP-103">
          <mxGeometry x="275" width="69" height="40" as="geometry">
            <mxRectangle width="69" height="40" as="alternateBounds" />
          </mxGeometry>
        </mxCell>
        <mxCell id="Q847FwNQ0QFkaVLEE0cP-109" value="35" style="shape=partialRectangle;html=1;whiteSpace=wrap;connectable=0;strokeColor=inherit;overflow=hidden;fillColor=none;top=0;left=0;bottom=0;right=0;pointerEvents=1;fontSize=16;" vertex="1" parent="Q847FwNQ0QFkaVLEE0cP-103">
          <mxGeometry x="344" width="69" height="40" as="geometry">
            <mxRectangle width="69" height="40" as="alternateBounds" />
          </mxGeometry>
        </mxCell>
        <mxCell id="Q847FwNQ0QFkaVLEE0cP-110" value="TROCA" style="text;html=1;align=center;verticalAlign=middle;resizable=0;points=[];autosize=1;strokeColor=none;fillColor=none;" vertex="1" parent="1">
          <mxGeometry x="600" y="720" width="70" height="30" as="geometry" />
        </mxCell>
        <mxCell id="Q847FwNQ0QFkaVLEE0cP-111" value="2 &amp;gt; 1" style="text;html=1;align=center;verticalAlign=middle;resizable=0;points=[];autosize=1;strokeColor=none;fillColor=none;" vertex="1" parent="1">
          <mxGeometry x="610" y="750" width="50" height="30" as="geometry" />
        </mxCell>
        <mxCell id="Q847FwNQ0QFkaVLEE0cP-113" value="" style="curved=1;endArrow=classic;html=1;rounded=0;entryX=0.268;entryY=1.055;entryDx=0;entryDy=0;entryPerimeter=0;exitX=0.426;exitY=1.025;exitDx=0;exitDy=0;exitPerimeter=0;startArrow=classic;startFill=1;" edge="1" parent="1">
          <mxGeometry width="50" height="50" relative="1" as="geometry">
            <mxPoint x="413.9380000000001" y="761" as="sourcePoint" />
            <mxPoint x="268.0040000000002" y="762.2" as="targetPoint" />
            <Array as="points">
              <mxPoint x="368" y="790" />
              <mxPoint x="307.32" y="780" />
            </Array>
          </mxGeometry>
        </mxCell>
        <mxCell id="Q847FwNQ0QFkaVLEE0cP-114" value="" style="shape=table;startSize=0;container=1;collapsible=0;childLayout=tableLayout;fontSize=16;" vertex="1" parent="1">
          <mxGeometry x="158" y="840" width="413" height="40" as="geometry" />
        </mxCell>
        <mxCell id="Q847FwNQ0QFkaVLEE0cP-115" value="" style="shape=tableRow;horizontal=0;startSize=0;swimlaneHead=0;swimlaneBody=0;strokeColor=inherit;top=0;left=0;bottom=0;right=0;collapsible=0;dropTarget=0;fillColor=none;points=[[0,0.5],[1,0.5]];portConstraint=eastwest;fontSize=16;" vertex="1" parent="Q847FwNQ0QFkaVLEE0cP-114">
          <mxGeometry width="413" height="40" as="geometry" />
        </mxCell>
        <mxCell id="Q847FwNQ0QFkaVLEE0cP-116" value="13" style="shape=partialRectangle;html=1;whiteSpace=wrap;connectable=0;strokeColor=inherit;overflow=hidden;fillColor=none;top=0;left=0;bottom=0;right=0;pointerEvents=1;fontSize=16;" vertex="1" parent="Q847FwNQ0QFkaVLEE0cP-115">
          <mxGeometry width="69" height="40" as="geometry">
            <mxRectangle width="69" height="40" as="alternateBounds" />
          </mxGeometry>
        </mxCell>
        <mxCell id="Q847FwNQ0QFkaVLEE0cP-117" value="1" style="shape=partialRectangle;html=1;whiteSpace=wrap;connectable=0;strokeColor=inherit;overflow=hidden;fillColor=none;top=0;left=0;bottom=0;right=0;pointerEvents=1;fontSize=16;" vertex="1" parent="Q847FwNQ0QFkaVLEE0cP-115">
          <mxGeometry x="69" width="68" height="40" as="geometry">
            <mxRectangle width="68" height="40" as="alternateBounds" />
          </mxGeometry>
        </mxCell>
        <mxCell id="Q847FwNQ0QFkaVLEE0cP-118" value="7" style="shape=partialRectangle;html=1;whiteSpace=wrap;connectable=0;strokeColor=inherit;overflow=hidden;fillColor=none;top=0;left=0;bottom=0;right=0;pointerEvents=1;fontSize=16;" vertex="1" parent="Q847FwNQ0QFkaVLEE0cP-115">
          <mxGeometry x="137" width="69" height="40" as="geometry">
            <mxRectangle width="69" height="40" as="alternateBounds" />
          </mxGeometry>
        </mxCell>
        <mxCell id="Q847FwNQ0QFkaVLEE0cP-119" value="2" style="shape=partialRectangle;html=1;whiteSpace=wrap;connectable=0;strokeColor=inherit;overflow=hidden;fillColor=none;top=0;left=0;bottom=0;right=0;pointerEvents=1;fontSize=16;" vertex="1" parent="Q847FwNQ0QFkaVLEE0cP-115">
          <mxGeometry x="206" width="69" height="40" as="geometry">
            <mxRectangle width="69" height="40" as="alternateBounds" />
          </mxGeometry>
        </mxCell>
        <mxCell id="Q847FwNQ0QFkaVLEE0cP-120" value="22" style="shape=partialRectangle;html=1;whiteSpace=wrap;connectable=0;strokeColor=inherit;overflow=hidden;fillColor=none;top=0;left=0;bottom=0;right=0;pointerEvents=1;fontSize=16;" vertex="1" parent="Q847FwNQ0QFkaVLEE0cP-115">
          <mxGeometry x="275" width="69" height="40" as="geometry">
            <mxRectangle width="69" height="40" as="alternateBounds" />
          </mxGeometry>
        </mxCell>
        <mxCell id="Q847FwNQ0QFkaVLEE0cP-121" value="35" style="shape=partialRectangle;html=1;whiteSpace=wrap;connectable=0;strokeColor=inherit;overflow=hidden;fillColor=none;top=0;left=0;bottom=0;right=0;pointerEvents=1;fontSize=16;" vertex="1" parent="Q847FwNQ0QFkaVLEE0cP-115">
          <mxGeometry x="344" width="69" height="40" as="geometry">
            <mxRectangle width="69" height="40" as="alternateBounds" />
          </mxGeometry>
        </mxCell>
        <mxCell id="Q847FwNQ0QFkaVLEE0cP-122" value="TROCA" style="text;html=1;align=center;verticalAlign=middle;resizable=0;points=[];autosize=1;strokeColor=none;fillColor=none;" vertex="1" parent="1">
          <mxGeometry x="598" y="840" width="70" height="30" as="geometry" />
        </mxCell>
        <mxCell id="Q847FwNQ0QFkaVLEE0cP-123" value="13 &amp;gt; 2" style="text;html=1;align=center;verticalAlign=middle;resizable=0;points=[];autosize=1;strokeColor=none;fillColor=none;" vertex="1" parent="1">
          <mxGeometry x="603" y="870" width="60" height="30" as="geometry" />
        </mxCell>
        <mxCell id="Q847FwNQ0QFkaVLEE0cP-124" value="" style="curved=1;endArrow=classic;html=1;rounded=0;entryX=0.266;entryY=0;entryDx=0;entryDy=0;entryPerimeter=0;exitX=0.577;exitY=-0.012;exitDx=0;exitDy=0;exitPerimeter=0;startArrow=classic;startFill=1;" edge="1" parent="1" source="Q847FwNQ0QFkaVLEE0cP-115">
          <mxGeometry width="50" height="50" relative="1" as="geometry">
            <mxPoint x="325.49599999999987" y="837" as="sourcePoint" />
            <mxPoint x="191.18800000000016" y="840" as="targetPoint" />
            <Array as="points">
              <mxPoint x="332" y="810" />
              <mxPoint x="211.32999999999998" y="820" />
            </Array>
          </mxGeometry>
        </mxCell>
        <mxCell id="Q847FwNQ0QFkaVLEE0cP-126" value="i = 2" style="text;html=1;align=center;verticalAlign=middle;resizable=0;points=[];autosize=1;strokeColor=none;fillColor=none;" vertex="1" parent="1">
          <mxGeometry x="40" y="840" width="50" height="30" as="geometry" />
        </mxCell>
        <mxCell id="Q847FwNQ0QFkaVLEE0cP-127" value="" style="shape=table;startSize=0;container=1;collapsible=0;childLayout=tableLayout;fontSize=16;" vertex="1" parent="1">
          <mxGeometry x="160" y="920" width="413" height="40" as="geometry" />
        </mxCell>
        <mxCell id="Q847FwNQ0QFkaVLEE0cP-128" value="" style="shape=tableRow;horizontal=0;startSize=0;swimlaneHead=0;swimlaneBody=0;strokeColor=inherit;top=0;left=0;bottom=0;right=0;collapsible=0;dropTarget=0;fillColor=none;points=[[0,0.5],[1,0.5]];portConstraint=eastwest;fontSize=16;" vertex="1" parent="Q847FwNQ0QFkaVLEE0cP-127">
          <mxGeometry width="413" height="40" as="geometry" />
        </mxCell>
        <mxCell id="Q847FwNQ0QFkaVLEE0cP-129" value="2" style="shape=partialRectangle;html=1;whiteSpace=wrap;connectable=0;strokeColor=inherit;overflow=hidden;fillColor=none;top=0;left=0;bottom=0;right=0;pointerEvents=1;fontSize=16;" vertex="1" parent="Q847FwNQ0QFkaVLEE0cP-128">
          <mxGeometry width="69" height="40" as="geometry">
            <mxRectangle width="69" height="40" as="alternateBounds" />
          </mxGeometry>
        </mxCell>
        <mxCell id="Q847FwNQ0QFkaVLEE0cP-130" value="1" style="shape=partialRectangle;html=1;whiteSpace=wrap;connectable=0;strokeColor=inherit;overflow=hidden;fillColor=none;top=0;left=0;bottom=0;right=0;pointerEvents=1;fontSize=16;" vertex="1" parent="Q847FwNQ0QFkaVLEE0cP-128">
          <mxGeometry x="69" width="68" height="40" as="geometry">
            <mxRectangle width="68" height="40" as="alternateBounds" />
          </mxGeometry>
        </mxCell>
        <mxCell id="Q847FwNQ0QFkaVLEE0cP-131" value="7" style="shape=partialRectangle;html=1;whiteSpace=wrap;connectable=0;strokeColor=inherit;overflow=hidden;fillColor=none;top=0;left=0;bottom=0;right=0;pointerEvents=1;fontSize=16;" vertex="1" parent="Q847FwNQ0QFkaVLEE0cP-128">
          <mxGeometry x="137" width="69" height="40" as="geometry">
            <mxRectangle width="69" height="40" as="alternateBounds" />
          </mxGeometry>
        </mxCell>
        <mxCell id="Q847FwNQ0QFkaVLEE0cP-132" value="13" style="shape=partialRectangle;html=1;whiteSpace=wrap;connectable=0;strokeColor=inherit;overflow=hidden;fillColor=none;top=0;left=0;bottom=0;right=0;pointerEvents=1;fontSize=16;" vertex="1" parent="Q847FwNQ0QFkaVLEE0cP-128">
          <mxGeometry x="206" width="69" height="40" as="geometry">
            <mxRectangle width="69" height="40" as="alternateBounds" />
          </mxGeometry>
        </mxCell>
        <mxCell id="Q847FwNQ0QFkaVLEE0cP-133" value="22" style="shape=partialRectangle;html=1;whiteSpace=wrap;connectable=0;strokeColor=inherit;overflow=hidden;fillColor=none;top=0;left=0;bottom=0;right=0;pointerEvents=1;fontSize=16;" vertex="1" parent="Q847FwNQ0QFkaVLEE0cP-128">
          <mxGeometry x="275" width="69" height="40" as="geometry">
            <mxRectangle width="69" height="40" as="alternateBounds" />
          </mxGeometry>
        </mxCell>
        <mxCell id="Q847FwNQ0QFkaVLEE0cP-134" value="35" style="shape=partialRectangle;html=1;whiteSpace=wrap;connectable=0;strokeColor=inherit;overflow=hidden;fillColor=none;top=0;left=0;bottom=0;right=0;pointerEvents=1;fontSize=16;" vertex="1" parent="Q847FwNQ0QFkaVLEE0cP-128">
          <mxGeometry x="344" width="69" height="40" as="geometry">
            <mxRectangle width="69" height="40" as="alternateBounds" />
          </mxGeometry>
        </mxCell>
        <mxCell id="Q847FwNQ0QFkaVLEE0cP-135" value="TROCA" style="text;html=1;align=center;verticalAlign=middle;resizable=0;points=[];autosize=1;strokeColor=none;fillColor=none;" vertex="1" parent="1">
          <mxGeometry x="600" y="920" width="70" height="30" as="geometry" />
        </mxCell>
        <mxCell id="Q847FwNQ0QFkaVLEE0cP-136" value="7 &amp;gt; 2 &amp;gt; 1" style="text;html=1;align=center;verticalAlign=middle;resizable=0;points=[];autosize=1;strokeColor=none;fillColor=none;" vertex="1" parent="1">
          <mxGeometry x="600" y="950" width="70" height="30" as="geometry" />
        </mxCell>
        <mxCell id="Q847FwNQ0QFkaVLEE0cP-137" value="" style="curved=1;endArrow=classic;html=1;rounded=0;entryX=0.266;entryY=0;entryDx=0;entryDy=0;entryPerimeter=0;exitX=0.263;exitY=0.008;exitDx=0;exitDy=0;exitPerimeter=0;startArrow=classic;startFill=1;" edge="1" parent="1" source="Q847FwNQ0QFkaVLEE0cP-128">
          <mxGeometry width="50" height="50" relative="1" as="geometry">
            <mxPoint x="327.49599999999987" y="917" as="sourcePoint" />
            <mxPoint x="193.18800000000016" y="920" as="targetPoint" />
            <Array as="points">
              <mxPoint x="250" y="900" />
              <mxPoint x="213.32999999999998" y="900" />
            </Array>
          </mxGeometry>
        </mxCell>
        <mxCell id="Q847FwNQ0QFkaVLEE0cP-138" value="" style="curved=1;endArrow=classic;html=1;rounded=0;entryX=0.268;entryY=1.055;entryDx=0;entryDy=0;entryPerimeter=0;exitX=0.426;exitY=1.025;exitDx=0;exitDy=0;exitPerimeter=0;startArrow=classic;startFill=1;" edge="1" parent="1">
          <mxGeometry width="50" height="50" relative="1" as="geometry">
            <mxPoint x="341" y="960" as="sourcePoint" />
            <mxPoint x="195.0040000000002" y="961.2" as="targetPoint" />
            <Array as="points">
              <mxPoint x="295" y="989" />
              <mxPoint x="234.32" y="979" />
            </Array>
          </mxGeometry>
        </mxCell>
        <mxCell id="Q847FwNQ0QFkaVLEE0cP-139" value="" style="shape=table;startSize=0;container=1;collapsible=0;childLayout=tableLayout;fontSize=16;" vertex="1" parent="1">
          <mxGeometry x="160" y="1010" width="413" height="40" as="geometry" />
        </mxCell>
        <mxCell id="Q847FwNQ0QFkaVLEE0cP-140" value="" style="shape=tableRow;horizontal=0;startSize=0;swimlaneHead=0;swimlaneBody=0;strokeColor=inherit;top=0;left=0;bottom=0;right=0;collapsible=0;dropTarget=0;fillColor=none;points=[[0,0.5],[1,0.5]];portConstraint=eastwest;fontSize=16;" vertex="1" parent="Q847FwNQ0QFkaVLEE0cP-139">
          <mxGeometry width="413" height="40" as="geometry" />
        </mxCell>
        <mxCell id="Q847FwNQ0QFkaVLEE0cP-141" value="7" style="shape=partialRectangle;html=1;whiteSpace=wrap;connectable=0;strokeColor=inherit;overflow=hidden;fillColor=none;top=0;left=0;bottom=0;right=0;pointerEvents=1;fontSize=16;" vertex="1" parent="Q847FwNQ0QFkaVLEE0cP-140">
          <mxGeometry width="69" height="40" as="geometry">
            <mxRectangle width="69" height="40" as="alternateBounds" />
          </mxGeometry>
        </mxCell>
        <mxCell id="Q847FwNQ0QFkaVLEE0cP-142" value="1" style="shape=partialRectangle;html=1;whiteSpace=wrap;connectable=0;strokeColor=inherit;overflow=hidden;fillColor=none;top=0;left=0;bottom=0;right=0;pointerEvents=1;fontSize=16;" vertex="1" parent="Q847FwNQ0QFkaVLEE0cP-140">
          <mxGeometry x="69" width="68" height="40" as="geometry">
            <mxRectangle width="68" height="40" as="alternateBounds" />
          </mxGeometry>
        </mxCell>
        <mxCell id="Q847FwNQ0QFkaVLEE0cP-143" value="2" style="shape=partialRectangle;html=1;whiteSpace=wrap;connectable=0;strokeColor=inherit;overflow=hidden;fillColor=none;top=0;left=0;bottom=0;right=0;pointerEvents=1;fontSize=16;" vertex="1" parent="Q847FwNQ0QFkaVLEE0cP-140">
          <mxGeometry x="137" width="69" height="40" as="geometry">
            <mxRectangle width="69" height="40" as="alternateBounds" />
          </mxGeometry>
        </mxCell>
        <mxCell id="Q847FwNQ0QFkaVLEE0cP-144" value="13" style="shape=partialRectangle;html=1;whiteSpace=wrap;connectable=0;strokeColor=inherit;overflow=hidden;fillColor=none;top=0;left=0;bottom=0;right=0;pointerEvents=1;fontSize=16;" vertex="1" parent="Q847FwNQ0QFkaVLEE0cP-140">
          <mxGeometry x="206" width="69" height="40" as="geometry">
            <mxRectangle width="69" height="40" as="alternateBounds" />
          </mxGeometry>
        </mxCell>
        <mxCell id="Q847FwNQ0QFkaVLEE0cP-145" value="22" style="shape=partialRectangle;html=1;whiteSpace=wrap;connectable=0;strokeColor=inherit;overflow=hidden;fillColor=none;top=0;left=0;bottom=0;right=0;pointerEvents=1;fontSize=16;" vertex="1" parent="Q847FwNQ0QFkaVLEE0cP-140">
          <mxGeometry x="275" width="69" height="40" as="geometry">
            <mxRectangle width="69" height="40" as="alternateBounds" />
          </mxGeometry>
        </mxCell>
        <mxCell id="Q847FwNQ0QFkaVLEE0cP-146" value="35" style="shape=partialRectangle;html=1;whiteSpace=wrap;connectable=0;strokeColor=inherit;overflow=hidden;fillColor=none;top=0;left=0;bottom=0;right=0;pointerEvents=1;fontSize=16;" vertex="1" parent="Q847FwNQ0QFkaVLEE0cP-140">
          <mxGeometry x="344" width="69" height="40" as="geometry">
            <mxRectangle width="69" height="40" as="alternateBounds" />
          </mxGeometry>
        </mxCell>
        <mxCell id="Q847FwNQ0QFkaVLEE0cP-147" value="TROCA" style="text;html=1;align=center;verticalAlign=middle;resizable=0;points=[];autosize=1;strokeColor=none;fillColor=none;" vertex="1" parent="1">
          <mxGeometry x="600" y="1010" width="70" height="30" as="geometry" />
        </mxCell>
        <mxCell id="Q847FwNQ0QFkaVLEE0cP-148" value="7 &amp;gt; 2 &amp;gt; 1" style="text;html=1;align=center;verticalAlign=middle;resizable=0;points=[];autosize=1;strokeColor=none;fillColor=none;" vertex="1" parent="1">
          <mxGeometry x="600" y="1040" width="70" height="30" as="geometry" />
        </mxCell>
        <mxCell id="Q847FwNQ0QFkaVLEE0cP-149" value="" style="curved=1;endArrow=classic;html=1;rounded=0;entryX=0.266;entryY=0;entryDx=0;entryDy=0;entryPerimeter=0;exitX=0.263;exitY=0.008;exitDx=0;exitDy=0;exitPerimeter=0;startArrow=classic;startFill=1;" edge="1" parent="1" source="Q847FwNQ0QFkaVLEE0cP-140">
          <mxGeometry width="50" height="50" relative="1" as="geometry">
            <mxPoint x="327.49599999999987" y="1007" as="sourcePoint" />
            <mxPoint x="193.18800000000016" y="1010" as="targetPoint" />
            <Array as="points">
              <mxPoint x="250" y="990" />
              <mxPoint x="213.32999999999998" y="990" />
            </Array>
          </mxGeometry>
        </mxCell>
        <mxCell id="Q847FwNQ0QFkaVLEE0cP-150" value="" style="curved=1;endArrow=classic;html=1;rounded=0;entryX=0.268;entryY=1.055;entryDx=0;entryDy=0;entryPerimeter=0;exitX=0.426;exitY=1.025;exitDx=0;exitDy=0;exitPerimeter=0;startArrow=classic;startFill=1;" edge="1" parent="1">
          <mxGeometry width="50" height="50" relative="1" as="geometry">
            <mxPoint x="341" y="1050" as="sourcePoint" />
            <mxPoint x="195.0040000000002" y="1051.2" as="targetPoint" />
            <Array as="points">
              <mxPoint x="295" y="1079" />
              <mxPoint x="234.32" y="1069" />
            </Array>
          </mxGeometry>
        </mxCell>
        <mxCell id="Q847FwNQ0QFkaVLEE0cP-151" value="" style="shape=table;startSize=0;container=1;collapsible=0;childLayout=tableLayout;fontSize=16;" vertex="1" parent="1">
          <mxGeometry x="160" y="1140" width="413" height="40" as="geometry" />
        </mxCell>
        <mxCell id="Q847FwNQ0QFkaVLEE0cP-152" value="" style="shape=tableRow;horizontal=0;startSize=0;swimlaneHead=0;swimlaneBody=0;strokeColor=inherit;top=0;left=0;bottom=0;right=0;collapsible=0;dropTarget=0;fillColor=none;points=[[0,0.5],[1,0.5]];portConstraint=eastwest;fontSize=16;" vertex="1" parent="Q847FwNQ0QFkaVLEE0cP-151">
          <mxGeometry width="413" height="40" as="geometry" />
        </mxCell>
        <mxCell id="Q847FwNQ0QFkaVLEE0cP-153" value="7" style="shape=partialRectangle;html=1;whiteSpace=wrap;connectable=0;strokeColor=inherit;overflow=hidden;fillColor=none;top=0;left=0;bottom=0;right=0;pointerEvents=1;fontSize=16;" vertex="1" parent="Q847FwNQ0QFkaVLEE0cP-152">
          <mxGeometry width="69" height="40" as="geometry">
            <mxRectangle width="69" height="40" as="alternateBounds" />
          </mxGeometry>
        </mxCell>
        <mxCell id="Q847FwNQ0QFkaVLEE0cP-154" value="1" style="shape=partialRectangle;html=1;whiteSpace=wrap;connectable=0;strokeColor=inherit;overflow=hidden;fillColor=none;top=0;left=0;bottom=0;right=0;pointerEvents=1;fontSize=16;" vertex="1" parent="Q847FwNQ0QFkaVLEE0cP-152">
          <mxGeometry x="69" width="68" height="40" as="geometry">
            <mxRectangle width="68" height="40" as="alternateBounds" />
          </mxGeometry>
        </mxCell>
        <mxCell id="Q847FwNQ0QFkaVLEE0cP-155" value="2" style="shape=partialRectangle;html=1;whiteSpace=wrap;connectable=0;strokeColor=inherit;overflow=hidden;fillColor=none;top=0;left=0;bottom=0;right=0;pointerEvents=1;fontSize=16;" vertex="1" parent="Q847FwNQ0QFkaVLEE0cP-152">
          <mxGeometry x="137" width="69" height="40" as="geometry">
            <mxRectangle width="69" height="40" as="alternateBounds" />
          </mxGeometry>
        </mxCell>
        <mxCell id="Q847FwNQ0QFkaVLEE0cP-156" value="13" style="shape=partialRectangle;html=1;whiteSpace=wrap;connectable=0;strokeColor=inherit;overflow=hidden;fillColor=none;top=0;left=0;bottom=0;right=0;pointerEvents=1;fontSize=16;" vertex="1" parent="Q847FwNQ0QFkaVLEE0cP-152">
          <mxGeometry x="206" width="69" height="40" as="geometry">
            <mxRectangle width="69" height="40" as="alternateBounds" />
          </mxGeometry>
        </mxCell>
        <mxCell id="Q847FwNQ0QFkaVLEE0cP-157" value="22" style="shape=partialRectangle;html=1;whiteSpace=wrap;connectable=0;strokeColor=inherit;overflow=hidden;fillColor=none;top=0;left=0;bottom=0;right=0;pointerEvents=1;fontSize=16;" vertex="1" parent="Q847FwNQ0QFkaVLEE0cP-152">
          <mxGeometry x="275" width="69" height="40" as="geometry">
            <mxRectangle width="69" height="40" as="alternateBounds" />
          </mxGeometry>
        </mxCell>
        <mxCell id="Q847FwNQ0QFkaVLEE0cP-158" value="35" style="shape=partialRectangle;html=1;whiteSpace=wrap;connectable=0;strokeColor=inherit;overflow=hidden;fillColor=none;top=0;left=0;bottom=0;right=0;pointerEvents=1;fontSize=16;" vertex="1" parent="Q847FwNQ0QFkaVLEE0cP-152">
          <mxGeometry x="344" width="69" height="40" as="geometry">
            <mxRectangle width="69" height="40" as="alternateBounds" />
          </mxGeometry>
        </mxCell>
        <mxCell id="Q847FwNQ0QFkaVLEE0cP-159" value="TROCA" style="text;html=1;align=center;verticalAlign=middle;resizable=0;points=[];autosize=1;strokeColor=none;fillColor=none;" vertex="1" parent="1">
          <mxGeometry x="600" y="1140" width="70" height="30" as="geometry" />
        </mxCell>
        <mxCell id="Q847FwNQ0QFkaVLEE0cP-160" value="7 &amp;gt; 2" style="text;html=1;align=center;verticalAlign=middle;resizable=0;points=[];autosize=1;strokeColor=none;fillColor=none;" vertex="1" parent="1">
          <mxGeometry x="610" y="1170" width="50" height="30" as="geometry" />
        </mxCell>
        <mxCell id="Q847FwNQ0QFkaVLEE0cP-161" value="" style="curved=1;endArrow=classic;html=1;rounded=0;entryX=0.266;entryY=0;entryDx=0;entryDy=0;entryPerimeter=0;exitX=0.41;exitY=-0.054;exitDx=0;exitDy=0;exitPerimeter=0;startArrow=classic;startFill=1;" edge="1" parent="1" source="Q847FwNQ0QFkaVLEE0cP-152">
          <mxGeometry width="50" height="50" relative="1" as="geometry">
            <mxPoint x="327.49599999999987" y="1137" as="sourcePoint" />
            <mxPoint x="193.18800000000016" y="1140" as="targetPoint" />
            <Array as="points">
              <mxPoint x="270" y="1120" />
              <mxPoint x="213.32999999999998" y="1120" />
            </Array>
          </mxGeometry>
        </mxCell>
        <mxCell id="Q847FwNQ0QFkaVLEE0cP-163" value="i = 3" style="text;html=1;align=center;verticalAlign=middle;resizable=0;points=[];autosize=1;strokeColor=none;fillColor=none;" vertex="1" parent="1">
          <mxGeometry x="40" y="1139" width="50" height="30" as="geometry" />
        </mxCell>
        <mxCell id="Q847FwNQ0QFkaVLEE0cP-164" value="" style="shape=table;startSize=0;container=1;collapsible=0;childLayout=tableLayout;fontSize=16;" vertex="1" parent="1">
          <mxGeometry x="160" y="1210" width="413" height="40" as="geometry" />
        </mxCell>
        <mxCell id="Q847FwNQ0QFkaVLEE0cP-165" value="" style="shape=tableRow;horizontal=0;startSize=0;swimlaneHead=0;swimlaneBody=0;strokeColor=inherit;top=0;left=0;bottom=0;right=0;collapsible=0;dropTarget=0;fillColor=none;points=[[0,0.5],[1,0.5]];portConstraint=eastwest;fontSize=16;" vertex="1" parent="Q847FwNQ0QFkaVLEE0cP-164">
          <mxGeometry width="413" height="40" as="geometry" />
        </mxCell>
        <mxCell id="Q847FwNQ0QFkaVLEE0cP-166" value="2" style="shape=partialRectangle;html=1;whiteSpace=wrap;connectable=0;strokeColor=inherit;overflow=hidden;fillColor=none;top=0;left=0;bottom=0;right=0;pointerEvents=1;fontSize=16;" vertex="1" parent="Q847FwNQ0QFkaVLEE0cP-165">
          <mxGeometry width="69" height="40" as="geometry">
            <mxRectangle width="69" height="40" as="alternateBounds" />
          </mxGeometry>
        </mxCell>
        <mxCell id="Q847FwNQ0QFkaVLEE0cP-167" value="1" style="shape=partialRectangle;html=1;whiteSpace=wrap;connectable=0;strokeColor=inherit;overflow=hidden;fillColor=none;top=0;left=0;bottom=0;right=0;pointerEvents=1;fontSize=16;" vertex="1" parent="Q847FwNQ0QFkaVLEE0cP-165">
          <mxGeometry x="69" width="68" height="40" as="geometry">
            <mxRectangle width="68" height="40" as="alternateBounds" />
          </mxGeometry>
        </mxCell>
        <mxCell id="Q847FwNQ0QFkaVLEE0cP-168" value="7" style="shape=partialRectangle;html=1;whiteSpace=wrap;connectable=0;strokeColor=inherit;overflow=hidden;fillColor=none;top=0;left=0;bottom=0;right=0;pointerEvents=1;fontSize=16;" vertex="1" parent="Q847FwNQ0QFkaVLEE0cP-165">
          <mxGeometry x="137" width="69" height="40" as="geometry">
            <mxRectangle width="69" height="40" as="alternateBounds" />
          </mxGeometry>
        </mxCell>
        <mxCell id="Q847FwNQ0QFkaVLEE0cP-169" value="13" style="shape=partialRectangle;html=1;whiteSpace=wrap;connectable=0;strokeColor=inherit;overflow=hidden;fillColor=none;top=0;left=0;bottom=0;right=0;pointerEvents=1;fontSize=16;" vertex="1" parent="Q847FwNQ0QFkaVLEE0cP-165">
          <mxGeometry x="206" width="69" height="40" as="geometry">
            <mxRectangle width="69" height="40" as="alternateBounds" />
          </mxGeometry>
        </mxCell>
        <mxCell id="Q847FwNQ0QFkaVLEE0cP-170" value="22" style="shape=partialRectangle;html=1;whiteSpace=wrap;connectable=0;strokeColor=inherit;overflow=hidden;fillColor=none;top=0;left=0;bottom=0;right=0;pointerEvents=1;fontSize=16;" vertex="1" parent="Q847FwNQ0QFkaVLEE0cP-165">
          <mxGeometry x="275" width="69" height="40" as="geometry">
            <mxRectangle width="69" height="40" as="alternateBounds" />
          </mxGeometry>
        </mxCell>
        <mxCell id="Q847FwNQ0QFkaVLEE0cP-171" value="35" style="shape=partialRectangle;html=1;whiteSpace=wrap;connectable=0;strokeColor=inherit;overflow=hidden;fillColor=none;top=0;left=0;bottom=0;right=0;pointerEvents=1;fontSize=16;" vertex="1" parent="Q847FwNQ0QFkaVLEE0cP-165">
          <mxGeometry x="344" width="69" height="40" as="geometry">
            <mxRectangle width="69" height="40" as="alternateBounds" />
          </mxGeometry>
        </mxCell>
        <mxCell id="Q847FwNQ0QFkaVLEE0cP-172" value="TROCA" style="text;html=1;align=center;verticalAlign=middle;resizable=0;points=[];autosize=1;strokeColor=none;fillColor=none;" vertex="1" parent="1">
          <mxGeometry x="600" y="1210" width="70" height="30" as="geometry" />
        </mxCell>
        <mxCell id="Q847FwNQ0QFkaVLEE0cP-173" value="7 &amp;gt; 2" style="text;html=1;align=center;verticalAlign=middle;resizable=0;points=[];autosize=1;strokeColor=none;fillColor=none;" vertex="1" parent="1">
          <mxGeometry x="610" y="1240" width="50" height="30" as="geometry" />
        </mxCell>
        <mxCell id="Q847FwNQ0QFkaVLEE0cP-174" value="" style="curved=1;endArrow=classic;html=1;rounded=0;entryX=0.266;entryY=0;entryDx=0;entryDy=0;entryPerimeter=0;exitX=0.41;exitY=-0.054;exitDx=0;exitDy=0;exitPerimeter=0;startArrow=classic;startFill=1;" edge="1" parent="1" source="Q847FwNQ0QFkaVLEE0cP-165">
          <mxGeometry width="50" height="50" relative="1" as="geometry">
            <mxPoint x="327.49599999999987" y="1207" as="sourcePoint" />
            <mxPoint x="193.18800000000016" y="1210" as="targetPoint" />
            <Array as="points">
              <mxPoint x="270" y="1190" />
              <mxPoint x="213.32999999999998" y="1190" />
            </Array>
          </mxGeometry>
        </mxCell>
        <mxCell id="Q847FwNQ0QFkaVLEE0cP-175" value="" style="shape=table;startSize=0;container=1;collapsible=0;childLayout=tableLayout;fontSize=16;" vertex="1" parent="1">
          <mxGeometry x="160" y="1290" width="413" height="40" as="geometry" />
        </mxCell>
        <mxCell id="Q847FwNQ0QFkaVLEE0cP-176" value="" style="shape=tableRow;horizontal=0;startSize=0;swimlaneHead=0;swimlaneBody=0;strokeColor=inherit;top=0;left=0;bottom=0;right=0;collapsible=0;dropTarget=0;fillColor=none;points=[[0,0.5],[1,0.5]];portConstraint=eastwest;fontSize=16;" vertex="1" parent="Q847FwNQ0QFkaVLEE0cP-175">
          <mxGeometry width="413" height="40" as="geometry" />
        </mxCell>
        <mxCell id="Q847FwNQ0QFkaVLEE0cP-177" value="2" style="shape=partialRectangle;html=1;whiteSpace=wrap;connectable=0;strokeColor=inherit;overflow=hidden;fillColor=none;top=0;left=0;bottom=0;right=0;pointerEvents=1;fontSize=16;" vertex="1" parent="Q847FwNQ0QFkaVLEE0cP-176">
          <mxGeometry width="69" height="40" as="geometry">
            <mxRectangle width="69" height="40" as="alternateBounds" />
          </mxGeometry>
        </mxCell>
        <mxCell id="Q847FwNQ0QFkaVLEE0cP-178" value="1" style="shape=partialRectangle;html=1;whiteSpace=wrap;connectable=0;strokeColor=inherit;overflow=hidden;fillColor=none;top=0;left=0;bottom=0;right=0;pointerEvents=1;fontSize=16;" vertex="1" parent="Q847FwNQ0QFkaVLEE0cP-176">
          <mxGeometry x="69" width="68" height="40" as="geometry">
            <mxRectangle width="68" height="40" as="alternateBounds" />
          </mxGeometry>
        </mxCell>
        <mxCell id="Q847FwNQ0QFkaVLEE0cP-179" value="7" style="shape=partialRectangle;html=1;whiteSpace=wrap;connectable=0;strokeColor=inherit;overflow=hidden;fillColor=none;top=0;left=0;bottom=0;right=0;pointerEvents=1;fontSize=16;" vertex="1" parent="Q847FwNQ0QFkaVLEE0cP-176">
          <mxGeometry x="137" width="69" height="40" as="geometry">
            <mxRectangle width="69" height="40" as="alternateBounds" />
          </mxGeometry>
        </mxCell>
        <mxCell id="Q847FwNQ0QFkaVLEE0cP-180" value="13" style="shape=partialRectangle;html=1;whiteSpace=wrap;connectable=0;strokeColor=inherit;overflow=hidden;fillColor=none;top=0;left=0;bottom=0;right=0;pointerEvents=1;fontSize=16;" vertex="1" parent="Q847FwNQ0QFkaVLEE0cP-176">
          <mxGeometry x="206" width="69" height="40" as="geometry">
            <mxRectangle width="69" height="40" as="alternateBounds" />
          </mxGeometry>
        </mxCell>
        <mxCell id="Q847FwNQ0QFkaVLEE0cP-181" value="22" style="shape=partialRectangle;html=1;whiteSpace=wrap;connectable=0;strokeColor=inherit;overflow=hidden;fillColor=none;top=0;left=0;bottom=0;right=0;pointerEvents=1;fontSize=16;" vertex="1" parent="Q847FwNQ0QFkaVLEE0cP-176">
          <mxGeometry x="275" width="69" height="40" as="geometry">
            <mxRectangle width="69" height="40" as="alternateBounds" />
          </mxGeometry>
        </mxCell>
        <mxCell id="Q847FwNQ0QFkaVLEE0cP-182" value="35" style="shape=partialRectangle;html=1;whiteSpace=wrap;connectable=0;strokeColor=inherit;overflow=hidden;fillColor=none;top=0;left=0;bottom=0;right=0;pointerEvents=1;fontSize=16;" vertex="1" parent="Q847FwNQ0QFkaVLEE0cP-176">
          <mxGeometry x="344" width="69" height="40" as="geometry">
            <mxRectangle width="69" height="40" as="alternateBounds" />
          </mxGeometry>
        </mxCell>
        <mxCell id="Q847FwNQ0QFkaVLEE0cP-183" value="OK" style="text;html=1;align=center;verticalAlign=middle;resizable=0;points=[];autosize=1;strokeColor=none;fillColor=none;" vertex="1" parent="1">
          <mxGeometry x="615" y="1290" width="40" height="30" as="geometry" />
        </mxCell>
        <mxCell id="Q847FwNQ0QFkaVLEE0cP-185" value="" style="curved=1;endArrow=classic;html=1;rounded=0;entryX=0.266;entryY=0;entryDx=0;entryDy=0;entryPerimeter=0;exitX=0.281;exitY=-0.033;exitDx=0;exitDy=0;exitPerimeter=0;startArrow=classic;startFill=1;" edge="1" parent="1" source="Q847FwNQ0QFkaVLEE0cP-176">
          <mxGeometry width="50" height="50" relative="1" as="geometry">
            <mxPoint x="327.49599999999987" y="1287" as="sourcePoint" />
            <mxPoint x="193.18800000000016" y="1290" as="targetPoint" />
            <Array as="points">
              <mxPoint x="270" y="1270" />
              <mxPoint x="213.32999999999998" y="1270" />
            </Array>
          </mxGeometry>
        </mxCell>
        <mxCell id="Q847FwNQ0QFkaVLEE0cP-186" value="" style="shape=table;startSize=0;container=1;collapsible=0;childLayout=tableLayout;fontSize=16;" vertex="1" parent="1">
          <mxGeometry x="160" y="1400" width="413" height="40" as="geometry" />
        </mxCell>
        <mxCell id="Q847FwNQ0QFkaVLEE0cP-187" value="" style="shape=tableRow;horizontal=0;startSize=0;swimlaneHead=0;swimlaneBody=0;strokeColor=inherit;top=0;left=0;bottom=0;right=0;collapsible=0;dropTarget=0;fillColor=none;points=[[0,0.5],[1,0.5]];portConstraint=eastwest;fontSize=16;" vertex="1" parent="Q847FwNQ0QFkaVLEE0cP-186">
          <mxGeometry width="413" height="40" as="geometry" />
        </mxCell>
        <mxCell id="Q847FwNQ0QFkaVLEE0cP-188" value="2" style="shape=partialRectangle;html=1;whiteSpace=wrap;connectable=0;strokeColor=inherit;overflow=hidden;fillColor=none;top=0;left=0;bottom=0;right=0;pointerEvents=1;fontSize=16;" vertex="1" parent="Q847FwNQ0QFkaVLEE0cP-187">
          <mxGeometry width="69" height="40" as="geometry">
            <mxRectangle width="69" height="40" as="alternateBounds" />
          </mxGeometry>
        </mxCell>
        <mxCell id="Q847FwNQ0QFkaVLEE0cP-189" value="1" style="shape=partialRectangle;html=1;whiteSpace=wrap;connectable=0;strokeColor=inherit;overflow=hidden;fillColor=none;top=0;left=0;bottom=0;right=0;pointerEvents=1;fontSize=16;" vertex="1" parent="Q847FwNQ0QFkaVLEE0cP-187">
          <mxGeometry x="69" width="68" height="40" as="geometry">
            <mxRectangle width="68" height="40" as="alternateBounds" />
          </mxGeometry>
        </mxCell>
        <mxCell id="Q847FwNQ0QFkaVLEE0cP-190" value="7" style="shape=partialRectangle;html=1;whiteSpace=wrap;connectable=0;strokeColor=inherit;overflow=hidden;fillColor=none;top=0;left=0;bottom=0;right=0;pointerEvents=1;fontSize=16;" vertex="1" parent="Q847FwNQ0QFkaVLEE0cP-187">
          <mxGeometry x="137" width="69" height="40" as="geometry">
            <mxRectangle width="69" height="40" as="alternateBounds" />
          </mxGeometry>
        </mxCell>
        <mxCell id="Q847FwNQ0QFkaVLEE0cP-191" value="13" style="shape=partialRectangle;html=1;whiteSpace=wrap;connectable=0;strokeColor=inherit;overflow=hidden;fillColor=none;top=0;left=0;bottom=0;right=0;pointerEvents=1;fontSize=16;" vertex="1" parent="Q847FwNQ0QFkaVLEE0cP-187">
          <mxGeometry x="206" width="69" height="40" as="geometry">
            <mxRectangle width="69" height="40" as="alternateBounds" />
          </mxGeometry>
        </mxCell>
        <mxCell id="Q847FwNQ0QFkaVLEE0cP-192" value="22" style="shape=partialRectangle;html=1;whiteSpace=wrap;connectable=0;strokeColor=inherit;overflow=hidden;fillColor=none;top=0;left=0;bottom=0;right=0;pointerEvents=1;fontSize=16;" vertex="1" parent="Q847FwNQ0QFkaVLEE0cP-187">
          <mxGeometry x="275" width="69" height="40" as="geometry">
            <mxRectangle width="69" height="40" as="alternateBounds" />
          </mxGeometry>
        </mxCell>
        <mxCell id="Q847FwNQ0QFkaVLEE0cP-193" value="35" style="shape=partialRectangle;html=1;whiteSpace=wrap;connectable=0;strokeColor=inherit;overflow=hidden;fillColor=none;top=0;left=0;bottom=0;right=0;pointerEvents=1;fontSize=16;" vertex="1" parent="Q847FwNQ0QFkaVLEE0cP-187">
          <mxGeometry x="344" width="69" height="40" as="geometry">
            <mxRectangle width="69" height="40" as="alternateBounds" />
          </mxGeometry>
        </mxCell>
        <mxCell id="Q847FwNQ0QFkaVLEE0cP-194" value="TROCA" style="text;html=1;align=center;verticalAlign=middle;resizable=0;points=[];autosize=1;strokeColor=none;fillColor=none;" vertex="1" parent="1">
          <mxGeometry x="600" y="1400" width="70" height="30" as="geometry" />
        </mxCell>
        <mxCell id="Q847FwNQ0QFkaVLEE0cP-195" value="" style="curved=1;endArrow=classic;html=1;rounded=0;entryX=0.266;entryY=0;entryDx=0;entryDy=0;entryPerimeter=0;exitX=0.281;exitY=-0.033;exitDx=0;exitDy=0;exitPerimeter=0;startArrow=classic;startFill=1;" edge="1" parent="1" source="Q847FwNQ0QFkaVLEE0cP-187">
          <mxGeometry width="50" height="50" relative="1" as="geometry">
            <mxPoint x="327.49599999999987" y="1397" as="sourcePoint" />
            <mxPoint x="193.18800000000016" y="1400" as="targetPoint" />
            <Array as="points">
              <mxPoint x="270" y="1380" />
              <mxPoint x="213.32999999999998" y="1380" />
            </Array>
          </mxGeometry>
        </mxCell>
        <mxCell id="Q847FwNQ0QFkaVLEE0cP-196" value="i = 4" style="text;html=1;align=center;verticalAlign=middle;resizable=0;points=[];autosize=1;strokeColor=none;fillColor=none;" vertex="1" parent="1">
          <mxGeometry x="40" y="1400" width="50" height="30" as="geometry" />
        </mxCell>
        <mxCell id="Q847FwNQ0QFkaVLEE0cP-197" value="2 &amp;gt; 1" style="text;html=1;align=center;verticalAlign=middle;resizable=0;points=[];autosize=1;strokeColor=none;fillColor=none;" vertex="1" parent="1">
          <mxGeometry x="613" y="1420" width="50" height="30" as="geometry" />
        </mxCell>
        <mxCell id="Q847FwNQ0QFkaVLEE0cP-198" value="" style="shape=table;startSize=0;container=1;collapsible=0;childLayout=tableLayout;fontSize=16;" vertex="1" parent="1">
          <mxGeometry x="160" y="1490" width="413" height="40" as="geometry" />
        </mxCell>
        <mxCell id="Q847FwNQ0QFkaVLEE0cP-199" value="" style="shape=tableRow;horizontal=0;startSize=0;swimlaneHead=0;swimlaneBody=0;strokeColor=inherit;top=0;left=0;bottom=0;right=0;collapsible=0;dropTarget=0;fillColor=none;points=[[0,0.5],[1,0.5]];portConstraint=eastwest;fontSize=16;" vertex="1" parent="Q847FwNQ0QFkaVLEE0cP-198">
          <mxGeometry width="413" height="40" as="geometry" />
        </mxCell>
        <mxCell id="Q847FwNQ0QFkaVLEE0cP-200" value="1" style="shape=partialRectangle;html=1;whiteSpace=wrap;connectable=0;strokeColor=inherit;overflow=hidden;fillColor=none;top=0;left=0;bottom=0;right=0;pointerEvents=1;fontSize=16;" vertex="1" parent="Q847FwNQ0QFkaVLEE0cP-199">
          <mxGeometry width="69" height="40" as="geometry">
            <mxRectangle width="69" height="40" as="alternateBounds" />
          </mxGeometry>
        </mxCell>
        <mxCell id="Q847FwNQ0QFkaVLEE0cP-201" value="2" style="shape=partialRectangle;html=1;whiteSpace=wrap;connectable=0;strokeColor=inherit;overflow=hidden;fillColor=none;top=0;left=0;bottom=0;right=0;pointerEvents=1;fontSize=16;" vertex="1" parent="Q847FwNQ0QFkaVLEE0cP-199">
          <mxGeometry x="69" width="68" height="40" as="geometry">
            <mxRectangle width="68" height="40" as="alternateBounds" />
          </mxGeometry>
        </mxCell>
        <mxCell id="Q847FwNQ0QFkaVLEE0cP-202" value="7" style="shape=partialRectangle;html=1;whiteSpace=wrap;connectable=0;strokeColor=inherit;overflow=hidden;fillColor=none;top=0;left=0;bottom=0;right=0;pointerEvents=1;fontSize=16;" vertex="1" parent="Q847FwNQ0QFkaVLEE0cP-199">
          <mxGeometry x="137" width="69" height="40" as="geometry">
            <mxRectangle width="69" height="40" as="alternateBounds" />
          </mxGeometry>
        </mxCell>
        <mxCell id="Q847FwNQ0QFkaVLEE0cP-203" value="13" style="shape=partialRectangle;html=1;whiteSpace=wrap;connectable=0;strokeColor=inherit;overflow=hidden;fillColor=none;top=0;left=0;bottom=0;right=0;pointerEvents=1;fontSize=16;" vertex="1" parent="Q847FwNQ0QFkaVLEE0cP-199">
          <mxGeometry x="206" width="69" height="40" as="geometry">
            <mxRectangle width="69" height="40" as="alternateBounds" />
          </mxGeometry>
        </mxCell>
        <mxCell id="Q847FwNQ0QFkaVLEE0cP-204" value="22" style="shape=partialRectangle;html=1;whiteSpace=wrap;connectable=0;strokeColor=inherit;overflow=hidden;fillColor=none;top=0;left=0;bottom=0;right=0;pointerEvents=1;fontSize=16;" vertex="1" parent="Q847FwNQ0QFkaVLEE0cP-199">
          <mxGeometry x="275" width="69" height="40" as="geometry">
            <mxRectangle width="69" height="40" as="alternateBounds" />
          </mxGeometry>
        </mxCell>
        <mxCell id="Q847FwNQ0QFkaVLEE0cP-205" value="35" style="shape=partialRectangle;html=1;whiteSpace=wrap;connectable=0;strokeColor=inherit;overflow=hidden;fillColor=none;top=0;left=0;bottom=0;right=0;pointerEvents=1;fontSize=16;" vertex="1" parent="Q847FwNQ0QFkaVLEE0cP-199">
          <mxGeometry x="344" width="69" height="40" as="geometry">
            <mxRectangle width="69" height="40" as="alternateBounds" />
          </mxGeometry>
        </mxCell>
        <mxCell id="Q847FwNQ0QFkaVLEE0cP-206" value="" style="curved=1;endArrow=classic;html=1;rounded=0;entryX=0.266;entryY=0;entryDx=0;entryDy=0;entryPerimeter=0;exitX=0.281;exitY=-0.033;exitDx=0;exitDy=0;exitPerimeter=0;startArrow=classic;startFill=1;" edge="1" parent="1" source="Q847FwNQ0QFkaVLEE0cP-199">
          <mxGeometry width="50" height="50" relative="1" as="geometry">
            <mxPoint x="327.49599999999987" y="1487" as="sourcePoint" />
            <mxPoint x="193.18800000000016" y="1490" as="targetPoint" />
            <Array as="points">
              <mxPoint x="270" y="1470" />
              <mxPoint x="213.32999999999998" y="1470" />
            </Array>
          </mxGeometry>
        </mxCell>
      </root>
    </mxGraphModel>
  </diagram>
</mxfile>
